<?xml version="1.0" encoding="iso-8859-1"?>
<!-- Uploaded to: SVG Repo, www.svgrepo.com, Generator: SVG Repo Mixer Tools -->
<svg height="800px" width="800px" version="1.1" id="Layer_1" xmlns="http://www.w3.org/2000/svg" xmlns:xlink="http://www.w3.org/1999/xlink" 
	 viewBox="0 0 512 512" xml:space="preserve">
<path style="fill:#6398DE;" d="M499.721,62.643c-6.479-11.1-20.728-14.845-31.832-8.367L244.267,184.803
	c-11.1,6.481-14.846,20.731-8.369,31.832c4.327,7.412,12.117,11.543,20.122,11.543c3.983,0,8.023-1.024,11.711-3.176L491.352,94.473
	C502.453,87.994,506.2,73.742,499.721,62.643z"/>
<path style="fill:#D6E5F6;" d="M512,204.903c0-12.853-10.42-23.273-23.273-23.273H23.273C10.42,181.63,0,192.05,0,204.903
	c0,91.951,48.738,172.719,121.727,217.867c-3.348,4.032-5.364,9.208-5.364,14.859c0,12.853,10.42,23.273,23.273,23.273h232.727
	c12.853,0,23.273-10.42,23.273-23.273c0-5.651-2.015-10.826-5.364-14.859C463.262,377.623,512,296.853,512,204.903z"/>
<path style="fill:#BCD6F2;" d="M512,204.903c0-12.853-10.42-23.273-23.273-23.273h-232.73v279.271h116.367
	c12.853,0,23.273-10.42,23.273-23.273c0-5.651-2.015-10.826-5.364-14.859C463.262,377.623,512,296.853,512,204.903z"/>
<path style="fill:#E07188;" d="M469.352,274.719H42.642c-12.853,0-23.273,10.42-23.273,23.273s10.42,23.273,23.273,23.273H469.35
	c12.853,0,23.273-10.42,23.273-23.273C492.625,285.139,482.205,274.719,469.352,274.719z"/>
<path style="fill:#DC4161;" d="M469.352,274.719H255.997v46.545h213.355c12.853,0,23.273-10.42,23.273-23.273
	C492.625,285.139,482.205,274.719,469.352,274.719z"/>
</svg>