<?xml version="1.0" encoding="iso-8859-1"?>
<!-- Uploaded to: SVG Repo, www.svgrepo.com, Generator: SVG Repo Mixer Tools -->
<svg version="1.1" id="Layer_1" xmlns="http://www.w3.org/2000/svg" xmlns:xlink="http://www.w3.org/1999/xlink" 
	 viewBox="0 0 512.001 512.001" xml:space="preserve">
<path style="fill:#FFE470;" d="M100.557,171.668c-25.982-25.982-25.982-68.254,0-94.235c12.331-12.331,12.331-32.399,0-44.731
	L125.31,7.95c25.982,25.982,25.982,68.255,0,94.236c-5.974,5.974-9.264,13.917-9.264,22.364c0,8.448,3.289,16.391,9.264,22.365
	L100.557,171.668z"/>
<path style="fill:#FF9800;" d="M292.7,171.668c-25.982-25.982-25.982-68.254,0-94.235c12.331-12.331,12.331-32.399,0-44.731
	l24.753-24.753c25.982,25.982,25.982,68.255,0,94.236c-5.974,5.974-9.264,13.917-9.264,22.364c0,8.448,3.289,16.391,9.264,22.365
	L292.7,171.668z"/>
<path style="fill:#FFB64C;" d="M196.628,171.668c-25.982-25.982-25.982-68.254,0-94.235c12.331-12.331,12.331-32.399,0-44.731
	l24.753-24.753c25.982,25.982,25.982,68.255,0,94.236c-5.974,5.974-9.264,13.917-9.264,22.364c0,8.448,3.289,16.391,9.264,22.365
	L196.628,171.668z"/>
<path d="M433.501,380.996c-20.967,0-40.681-8.166-55.507-22.992l24.754-24.753c8.215,8.215,19.135,12.739,30.753,12.739
	c11.617,0,22.539-4.524,30.754-12.739c8.215-8.215,12.739-19.135,12.739-30.753c0-11.617-4.524-22.539-12.739-30.754
	c-16.957-16.955-44.55-16.957-61.507,0l-24.753-24.753c30.606-30.606,80.405-30.606,111.014,0
	c14.826,14.826,22.992,34.539,22.992,55.507c0,20.967-8.166,40.681-22.992,55.506C474.182,372.83,454.469,380.996,433.501,380.996z"
	/>
<path style="fill:#0088FF;" d="M433.501,380.996c-20.967,0-40.681-8.166-55.507-22.992l24.754-24.753
	c8.215,8.215,19.135,12.739,30.753,12.739c11.617,0,22.539-4.524,30.754-12.739c8.215-8.215,12.739-19.135,12.739-30.753
	c0-11.617-4.524-22.539-12.739-30.754c-16.957-16.955-44.55-16.957-61.507,0l-24.753-24.753c30.606-30.606,80.405-30.606,111.014,0
	c14.826,14.826,22.992,34.539,22.992,55.507c0,20.967-8.166,40.681-22.992,55.506C474.182,372.83,454.469,380.996,433.501,380.996z"
	/>
<polygon style="fill:#3ACC8F;" points="31.293,200.662 31.293,396.202 139.139,504.048 300.029,504.048 407.874,396.202 
	407.874,200.662 "/>
<polygon style="fill:#00C37A;" points="216.782,200.662 216.782,504.048 300.029,504.048 407.874,396.202 407.874,200.662 "/>
<path style="fill:#FF3D63;" d="M291.729,281.824c-20.076-20.074-50.741-23.26-74.179-9.559c-23.438-13.7-54.104-10.513-74.18,9.56
	c-11.56,11.56-17.927,26.93-17.927,43.279c0,16.348,6.366,31.718,17.927,43.278l74.18,74.179l74.179-74.179
	C315.593,344.518,315.593,305.689,291.729,281.824z"/>
<path style="fill:#FF0536;" d="M291.729,281.824c-20.076-20.074-50.741-23.26-74.179-9.559c-0.253-0.148-0.512-0.284-0.768-0.428
	v169.957l0.768,0.768l74.179-74.179C315.593,344.518,315.593,305.689,291.729,281.824z"/>
<rect y="469.046" style="fill:#FFB64C;" width="433.819" height="35.006"/>
<rect x="216.781" y="469.046" style="fill:#FF9800;" width="217.038" height="35.006"/>
<path style="fill:#FFEB9A;" d="M492.901,32.096c2.252,0,2.257-3.501,0-3.501C490.647,28.596,490.644,32.096,492.901,32.096
	L492.901,32.096z"/>
</svg>