<?xml version="1.0" encoding="utf-8"?>
<!-- Uploaded to: SVG Repo, www.svgrepo.com, Generator: SVG Repo Mixer Tools -->
<svg width="800px" height="800px" viewBox="0 0 1024 1024" class="icon"  version="1.1" xmlns="http://www.w3.org/2000/svg"><path d="M746.666667 618.666667H277.333333c-40.533333 76.8-170.666667 85.333333-170.666666 85.333333s32 42.666667 85.333333 42.666667h640c53.333333 0 85.333333-42.666667 85.333333-42.666667s-130.133333-8.533333-170.666666-85.333333zM704 448H320c-25.6 44.8-128 42.666667-128 42.666667s21.333333 42.666667 85.333333 42.666666h469.333334c64 0 85.333333-42.666667 85.333333-42.666666s-102.4 2.133333-128-42.666667zM512 149.333333c-72.533333 172.8-277.333333 170.666667-277.333333 170.666667s21.333333 42.666667 85.333333 42.666667h384c64 0 85.333333-42.666667 85.333333-42.666667s-204.8 2.133333-277.333333-170.666667z" fill="#FF9800" /><path d="M192 746.666667h640v170.666666H192zM277.333333 533.333333h469.333334v85.333334H277.333333zM320 362.666667h384v85.333333H320z" fill="#C62828" /><path d="M512 149.333333m-42.666667 0a42.666667 42.666667 0 1 0 85.333334 0 42.666667 42.666667 0 1 0-85.333334 0Z" fill="#C62828" /><path d="M426.666667 789.333333h170.666666v128h-170.666666zM384 576h85.333333v42.666667h-85.333333zM554.666667 576h85.333333v42.666667h-85.333333zM384 405.333333h85.333333v42.666667h-85.333333zM554.666667 405.333333h85.333333v42.666667h-85.333333z" fill="#700000" /></svg>