<?xml version="1.0" encoding="iso-8859-1"?>
<!-- Uploaded to: SVG Repo, www.svgrepo.com, Generator: SVG Repo Mixer Tools -->
<svg version="1.1" id="Layer_1" xmlns="http://www.w3.org/2000/svg" xmlns:xlink="http://www.w3.org/1999/xlink" 
	 viewBox="0 0 512.008 512.008" xml:space="preserve">
<polygon style="fill:#E87B5A;" points="424.001,267.244 496,306.515 496,173.477 424.001,212.749 "/>
<g>
	<circle style="fill:#EEC97B;" cx="188.005" cy="59.999" r="43.999"/>
	<circle style="fill:#EEC97B;" cx="332.003" cy="59.999" r="43.999"/>
</g>
<path style="fill:#9FC7D1;" d="M384.002,151.998H144.006c-13.232,0-24,10.768-24,24v39.999v87.999c0,13.232,10.768,24,24,24h239.996
	c13.232,0,24-10.768,24-24v-31.999v-63.999v-31.999C408.002,162.765,397.234,151.998,384.002,151.998z M269.556,285.756
	c-1.544,1.488-3.552,2.24-5.552,2.24s-4.008-0.752-5.552-2.24l-40.767-39.319c-6.24-6.016-9.68-14.048-9.68-22.608
	s3.44-16.584,9.68-22.616c12.696-12.24,33.343-12.256,46.055,0l0.264,0.264l0.264-0.256c12.696-12.24,33.343-12.256,46.055,0
	c6.24,6.024,9.68,14.056,9.68,22.608s-3.44,16.584-9.68,22.6L269.556,285.756z M328.003,311.995h-16v-16h16V311.995z
	 M360.002,311.995h-16v-16h16V311.995z M392.002,311.995h-16v-16h16V311.995z"/>
<path style="fill:#E87B5A;" d="M275.38,212.733l-5.824,5.616c-3.096,2.984-8.016,2.984-11.112,0l-5.824-5.616
	c-3.288-3.168-7.6-4.752-11.912-4.752c-4.32,0-8.632,1.576-11.92,4.752c-3.088,2.984-4.784,6.92-4.784,11.096
	c0,4.168,1.704,8.112,4.792,11.088l35.207,33.959l35.207-33.959c3.088-2.976,4.792-6.912,4.792-11.088
	c0-4.184-1.696-8.12-4.792-11.104C292.627,206.389,281.932,206.405,275.38,212.733z"/>
<g>
	<rect x="48.007" y="175.997" style="fill:#FFFFFF;" width="55.999" height="32"/>
	<path style="fill:#FFFFFF;" d="M284.452,343.995l66.831,146.47c1.096,2.296,3.128,4.12,5.664,4.984
		c2.52,0.872,5.248,0.696,7.656-0.496c4.776-2.392,6.808-8.264,4.512-13.096l-62.279-137.862H284.452z"/>
	<path style="fill:#FFFFFF;" d="M142.95,481.72c-2.352,4.96-0.32,10.832,4.464,13.224c2.408,1.2,5.128,1.376,7.648,0.496
		c2.536-0.864,4.568-2.688,5.728-5.112l66.767-146.334h-22.392L142.95,481.72z"/>
	<path style="fill:#FFFFFF;" d="M24.008,151.998c-4.416,0-8,3.584-8,8v63.999c0,4.416,3.584,8,8,8s8-3.584,8-8v-8v-47.999v-8
		C32.007,155.582,28.424,151.998,24.008,151.998z"/>
	<path style="fill:#FFFFFF;" d="M248.004,487.992c0,4.416,3.584,8,8,8s8-3.584,8-8V343.995h-16V487.992z"/>
</g>
<g>
	<path style="fill:#3C4A53;" d="M188.005,119.998c33.087,0,59.999-26.912,59.999-59.999S221.093,0,188.005,0
		s-59.999,26.912-59.999,59.999S154.918,119.998,188.005,119.998z M188.005,16c24.256,0,43.999,19.744,43.999,43.999
		s-19.744,43.999-43.999,43.999s-43.999-19.744-43.999-43.999S163.749,16,188.005,16z"/>
	<path style="fill:#3C4A53;" d="M332.003,119.998c33.087,0,59.999-26.912,59.999-59.999S365.09,0,332.003,0
		s-59.999,26.912-59.999,59.999S298.915,119.998,332.003,119.998z M332.003,16c24.256,0,43.999,19.744,43.999,43.999
		s-19.744,43.999-43.999,43.999c-24.256,0-43.999-19.744-43.999-43.999S307.747,16,332.003,16z"/>
	<path style="fill:#3C4A53;" d="M508.088,153.118c-2.424-1.44-5.44-1.472-7.912-0.136l-76.175,41.543v-18.528
		c0-22.056-17.944-39.999-39.999-39.999H144.006c-16.36,0-30.416,9.896-36.607,24H48.007c0-13.232-10.768-24-24-24s-24,10.768-24,24
		v63.999c0,13.232,10.768,24,24,24s24-10.768,24-24h55.999v79.999c0,22.056,17.944,39.999,39.999,39.999h43.607l-59.175,130.998
		c-5.992,12.632-0.688,28,11.824,34.263c3.648,1.832,7.584,2.744,11.544,2.744c2.832,0,5.688-0.472,8.464-1.424
		c6.624-2.28,11.936-7.024,15.016-13.48l56.719-124.294v115.19c0,13.232,10.768,24,24,24s24-10.768,24-24v-115.19l56.783,124.43
		c3.016,6.328,8.328,11.072,14.952,13.352c2.776,0.952,5.616,1.424,8.464,1.424c3.96,0,7.896-0.92,11.552-2.744
		c12.504-6.264,17.816-21.632,11.88-34.135l-59.239-131.134h59.607c22.056,0,39.999-17.944,39.999-39.999v-18.528l76.167,41.551
		c1.2,0.648,2.512,0.976,3.832,0.976c1.416,0,2.824-0.376,4.088-1.12c2.416-1.44,3.912-4.056,3.912-6.88V159.997
		C512,157.174,510.504,154.558,508.088,153.118z M32.007,167.997v47.999v8c0,4.416-3.584,8-8,8s-8-3.584-8-8v-63.999
		c0-4.416,3.584-8,8-8s8,3.584,8,8V167.997z M104.006,207.997H48.007v-31.999h55.999V207.997z M160.789,490.336
		c-1.16,2.424-3.192,4.24-5.728,5.112c-2.52,0.872-5.24,0.696-7.648-0.496c-4.784-2.392-6.816-8.264-4.464-13.224l62.223-137.734
		h22.392L160.789,490.336z M264.004,487.992c0,4.416-3.584,8-8,8s-8-3.584-8-8V343.995h16V487.992z M369.122,481.848
		c2.288,4.832,0.256,10.704-4.512,13.096c-2.408,1.2-5.136,1.376-7.656,0.496c-2.536-0.864-4.568-2.688-5.664-4.984l-66.839-146.462
		h22.392L369.122,481.848z M408.002,207.997v63.999v31.999c0,13.232-10.768,24-24,24H144.006c-13.232,0-24-10.768-24-24v-87.999
		v-39.999c0-13.232,10.768-24,24-24h239.996c13.232,0,24,10.768,24,24V207.997z M496,306.515l-71.999-39.271v-54.495L496,173.477
		V306.515z"/>
	<path style="fill:#3C4A53;" d="M310.323,201.213c-12.712-12.256-33.359-12.24-46.055,0l-0.264,0.264l-0.264-0.256
		c-12.712-12.256-33.359-12.24-46.055,0c-6.24,6.024-9.68,14.056-9.68,22.608s3.44,16.584,9.68,22.6l40.767,39.319
		c1.544,1.496,3.552,2.248,5.552,2.248s4.008-0.752,5.552-2.24l40.767-39.319c6.24-6.016,9.68-14.048,9.68-22.6
		S316.563,207.245,310.323,201.213z M299.211,234.916l-35.207,33.959l-35.207-33.959c-3.088-2.976-4.792-6.912-4.792-11.088
		c0-4.184,1.696-8.12,4.792-11.104c3.288-3.168,7.6-4.752,11.92-4.752c4.312,0,8.624,1.576,11.912,4.752l5.824,5.616
		c3.096,2.984,8.016,2.984,11.112,0l5.824-5.616c6.552-6.328,17.248-6.344,23.832,0c3.088,2.992,4.784,6.928,4.784,11.104
		S302.299,231.94,299.211,234.916z"/>
	<rect x="344.003" y="295.995" style="fill:#3C4A53;" width="16" height="16"/>
	<rect x="376.002" y="295.995" style="fill:#3C4A53;" width="16" height="16"/>
	<rect x="312.003" y="295.995" style="fill:#3C4A53;" width="16" height="16"/>
</g>
</svg>