<?xml version="1.0" encoding="iso-8859-1"?>
<!-- Uploaded to: SVG Repo, www.svgrepo.com, Generator: SVG Repo Mixer Tools -->
<svg height="800px" width="800px" version="1.1" id="Layer_1" xmlns="http://www.w3.org/2000/svg" xmlns:xlink="http://www.w3.org/1999/xlink" 
	 viewBox="0 0 512 512" xml:space="preserve">
<path style="fill:#ED6350;" d="M348.029,418.936v68.554h19.63c12.037,0,21.787-9.75,21.787-21.787v-14.085L348.029,418.936z"/>
<g>
	<path style="fill:#F37C4A;" d="M365.982,353.574v112.128c0,12.037-8.039,21.787-17.953,21.787H144.34
		c-12.037,0-21.787-9.75-21.787-21.787v-14.085L365.982,353.574z"/>
	<path style="fill:#F37C4A;" d="M460.255,242.762l-94.273,208.855h23.465c68.782-44.032,114.383-121.117,114.383-208.855H460.255z"
		/>
</g>
<path style="fill:#F7A676;" d="M8.17,242.764c0,87.737,45.601,164.82,114.383,208.852h243.429
	c56.69-44.032,94.273-121.115,94.273-208.852H8.17z"/>
<path style="fill:#FFF296;" d="M456.072,207.97c6.438-9.968,8.497-22.637,4.543-34.794c-3.943-12.157-13.061-21.199-24.129-25.48
	c3.039-11.471,1.089-24.151-6.427-34.5c-7.517-10.338-18.977-16.123-30.818-16.776c-0.654-11.841-6.438-23.301-16.776-30.818
	c-10.349-7.517-23.029-9.467-34.5-6.427l-0.251,0.599l79.861,182.991h43.574v-3.105C471.149,226.87,465.266,215.465,456.072,207.97z
	"/>
<path style="fill:#FFF9CF;" d="M427.574,239.66v3.105H40.851v-3.105c0-12.789,5.883-24.195,15.077-31.69
	c-6.438-9.968-8.497-22.637-4.543-34.794c3.943-12.157,13.061-21.199,24.129-25.48c-3.039-11.471-1.089-24.151,6.427-34.5
	c7.517-10.338,18.977-16.123,30.818-16.776c0.654-11.841,6.438-23.301,16.776-30.818c10.349-7.517,23.029-9.467,34.5-6.427
	c4.281-11.068,13.323-20.186,25.48-24.129c12.157-3.954,24.827-1.895,34.794,4.543c7.495-9.194,18.9-15.077,31.69-15.077
	s24.195,5.883,31.69,15.077c4.848-3.137,10.338-5.229,16.101-6.1c1.765,0.338,3.497,0.85,5.229,1.558
	c9.695,3.943,16.907,13.061,20.317,24.129c5.981-1.983,12.364-1.841,18.378,0.599c3.192,1.285,6.275,3.225,9.14,5.828
	c8.246,7.517,12.854,18.977,13.377,30.818c9.445,0.654,18.585,6.438,24.576,16.776c5.991,10.349,7.549,23.029,5.131,34.5
	c8.813,4.281,16.09,13.323,19.238,25.48c3.148,12.157,1.503,24.827-3.628,34.794C422.89,215.465,427.574,226.87,427.574,239.66z"/>
<path d="M509.608,236.985c-1.533-1.533-3.61-2.393-5.778-2.393h-24.779c-1.089-10.586-5.561-20.456-12.783-28.236
	c5.169-11.153,5.977-23.834,2.12-35.706c-3.859-11.872-11.966-21.657-22.703-27.64c1.472-12.204-1.679-24.514-9.017-34.613
	c-7.337-10.099-18.071-16.899-30.133-19.272c-2.373-12.06-9.172-22.795-19.272-30.133c-10.097-7.337-22.401-10.487-34.613-9.018
	c-5.984-10.736-15.769-18.845-27.64-22.702c-11.87-3.856-24.551-3.048-35.706,2.121C280.295,21.028,268.483,16.34,256,16.34
	c-12.483,0-24.294,4.688-33.303,13.049c-11.151-5.169-23.831-5.977-35.705-2.12c-11.872,3.857-21.657,11.966-27.641,22.702
	c-12.196-1.468-24.515,1.681-34.613,9.018c-10.098,7.337-16.9,18.073-19.273,30.134c-12.06,2.373-22.795,9.174-30.132,19.272
	c-7.338,10.099-10.488,22.41-9.018,34.614c-10.737,5.984-18.845,15.769-22.703,27.641c-3.857,11.872-3.049,24.553,2.12,35.706
	c-7.221,7.779-11.694,17.65-12.783,28.236H8.17c-2.167,0-4.244,0.861-5.778,2.393C0.861,238.517,0,240.595,0,242.762
	c0,86.223,42.672,165.615,114.383,213.283v9.657c0,16.519,13.439,29.957,29.957,29.957H367.66c16.518,0,29.957-13.438,29.957-29.957
	v-9.657C469.328,408.377,512,328.985,512,242.762C512,240.595,511.139,238.517,509.608,236.985z M385.041,444.741
	c-2.345,1.502-3.765,4.095-3.765,6.88v14.081c0,7.509-6.108,13.617-13.617,13.617H144.34c-7.509,0-13.617-6.108-13.617-13.617
	v-14.081c0-2.786-1.419-5.379-3.765-6.88C59.997,401.868,19.123,329.873,16.478,250.933l100.629,0.002c4.512,0,8.17-3.658,8.17-8.17
	s-3.657-8.17-8.17-8.17l-67.685-0.001c1.233-7.916,5.329-15.126,11.666-20.286c3.229-2.63,3.963-7.267,1.705-10.766
	c-5.364-8.309-6.691-18.456-3.642-27.841c3.05-9.385,10.089-16.814,19.311-20.384c3.884-1.503,6.015-5.688,4.949-9.713
	c-2.534-9.559-0.66-19.619,5.141-27.602c5.8-7.983,14.789-12.874,24.663-13.419c4.158-0.229,7.477-3.549,7.707-7.707
	c0.546-9.874,5.437-18.864,13.419-24.663c7.983-5.801,18.043-7.675,27.604-5.141c4.026,1.068,8.208-1.064,9.712-4.948
	c3.57-9.223,11-16.261,20.384-19.31c9.388-3.049,19.533-1.722,27.841,3.641c3.502,2.26,8.138,1.523,10.766-1.705
	c6.244-7.671,15.484-12.069,25.353-12.069c9.869,0,19.109,4.398,25.353,12.066c2.63,3.229,7.266,3.965,10.766,1.705
	c8.31-5.363,18.456-6.69,27.842-3.641c9.385,3.05,16.814,10.087,20.383,19.309c1.502,3.885,5.692,6.014,9.712,4.949
	c9.559-2.533,19.622-0.659,27.604,5.141c7.983,5.801,12.874,14.789,13.419,24.663c0.229,4.158,3.549,7.478,7.707,7.707
	c9.873,0.545,18.863,5.436,24.664,13.419c5.801,7.983,7.673,18.044,5.14,27.602c-1.066,4.025,1.065,8.209,4.949,9.713
	c9.223,3.57,16.261,10.999,19.311,20.383c3.049,9.385,1.722,19.532-3.642,27.841c-2.257,3.499-1.523,8.136,1.705,10.766
	c6.337,5.16,10.432,12.37,11.666,20.286l-312.792,0.004c-4.513,0-8.17,3.658-8.17,8.17s3.658,8.17,8.17,8.17l345.735-0.002
	C492.877,329.873,452.003,401.867,385.041,444.741z"/>
<path d="M147.064,451.621c0,4.512,3.657,8.17,8.17,8.17h201.532c4.513,0,8.17-3.658,8.17-8.17s-3.657-8.17-8.17-8.17H155.234
	C150.721,443.451,147.064,447.109,147.064,451.621z"/>
<circle cx="157.957" cy="144.722" r="8.17"/>
<circle cx="190.638" cy="112.041" r="8.17"/>
<circle cx="343.149" cy="188.296" r="8.17"/>
</svg>