<?xml version="1.0" encoding="iso-8859-1"?>
<!-- Uploaded to: SVG Repo, www.svgrepo.com, Generator: SVG Repo Mixer Tools -->
<svg height="800px" width="800px" version="1.1" id="Layer_1" xmlns="http://www.w3.org/2000/svg" xmlns:xlink="http://www.w3.org/1999/xlink" 
	 viewBox="0 0 512 512" xml:space="preserve">
<g>
	<path style="fill:#F5F6F6;" d="M255.192,0c0,68.398,5.029,200.688,141.314,272.124c0,0-77.683,94.668-77.683,239.876h145.755
		V209.387C464.579,93.746,370.834,0,255.192,0z"/>
	<path style="fill:#F5F6F6;" d="M255.192,0c0,68.398-5.029,200.688-141.314,272.124c0,0,77.683,94.668,77.683,239.876H45.806
		V209.387C45.806,93.746,139.552,0,255.192,0z"/>
</g>
<g>
	<path style="fill:#E5E5E5;" d="M113.878,272.124C246.647,202.533,254.844,69.764,255.179,0
		C85.529,136.166,85.537,271.577,85.537,271.577C114.053,355.489,124.884,412.012,126.8,512h64.761
		C191.561,366.792,113.878,272.124,113.878,272.124z"/>
	<path style="fill:#E5E5E5;" d="M396.48,272.124C263.712,202.533,255.514,69.764,255.179,0
		c169.65,136.166,169.642,271.577,169.642,271.577C396.305,355.489,385.473,412.012,383.559,512h-64.761
		C318.797,366.792,396.48,272.124,396.48,272.124z"/>
</g>
<path style="fill:#F6C958;" d="M490.709,287.725c0-5.336-2.815-10.014-7.041-12.632c1.136-4.838-0.179-10.137-3.952-13.909
	c-3.773-3.772-9.07-5.089-13.909-3.952c-2.618-4.226-7.295-7.041-12.632-7.041c-5.336,0-10.014,2.815-12.632,7.041
	c-4.838-1.136-10.135,0.179-13.909,3.952c-3.773,3.773-5.089,9.07-3.952,13.909c-4.226,2.618-7.041,7.296-7.041,12.632
	s2.815,10.014,7.041,12.632c-1.136,4.838,0.179,10.136,3.952,13.909c2.899,2.9,6.699,4.349,10.499,4.349
	c1.144,0,2.288-0.134,3.409-0.397c2.618,4.226,7.296,7.041,12.632,7.041s10.014-2.815,12.632-7.041
	c1.12,0.263,2.264,0.397,3.409,0.397c3.8,0,7.601-1.45,10.499-4.349c3.773-3.773,5.089-9.07,3.952-13.909
	C487.893,297.739,490.709,293.061,490.709,287.725z"/>
<path style="fill:#E5BC53;" d="M490.709,287.725c0-5.336-2.815-10.014-7.041-12.632c1.136-4.838-0.179-10.137-3.952-13.909
	c-3.773-3.772-9.07-5.089-13.909-3.952c-2.618-4.226-7.295-7.041-12.632-7.041c0,10.614,0,66.257,0,75.067
	c5.336,0,10.014-2.815,12.632-7.041c1.12,0.263,2.264,0.397,3.409,0.397c3.8,0,7.601-1.45,10.499-4.349
	c3.773-3.773,5.089-9.07,3.952-13.909C487.893,297.739,490.709,293.061,490.709,287.725z"/>
<circle style="fill:#EE964B;" cx="453.176" cy="287.722" r="10.309"/>
<path style="fill:#DF8D46;" d="M453.175,277.416c5.693,0,10.309,4.616,10.309,10.309s-4.616,10.309-10.309,10.309
	C453.175,289.871,453.175,282.938,453.175,277.416z"/>
<path style="fill:#FC9FD8;" d="M433.048,287.725c0-5.336-2.815-10.014-7.041-12.632c1.136-4.838-0.179-10.137-3.952-13.909
	c-3.773-3.772-9.07-5.089-13.909-3.952c-2.618-4.226-7.295-7.041-12.632-7.041c-5.336,0-10.014,2.815-12.632,7.041
	c-4.838-1.136-10.135,0.179-13.909,3.952c-3.773,3.773-5.089,9.07-3.952,13.909c-4.226,2.618-7.041,7.296-7.041,12.632
	s2.815,10.014,7.041,12.632c-1.136,4.838,0.179,10.136,3.952,13.909c2.9,2.9,6.699,4.349,10.499,4.349
	c1.144,0,2.288-0.134,3.408-0.397c2.618,4.226,7.296,7.041,12.632,7.041s10.014-2.815,12.632-7.041
	c1.12,0.263,2.264,0.397,3.409,0.397c3.8,0,7.601-1.45,10.499-4.349c3.773-3.773,5.089-9.07,3.952-13.909
	C430.232,297.739,433.048,293.061,433.048,287.725z"/>
<path style="fill:#EC96CB;" d="M433.048,287.725c0-5.336-2.815-10.014-7.041-12.632c1.136-4.838-0.179-10.137-3.952-13.909
	c-3.773-3.772-9.07-5.089-13.909-3.952c-2.618-4.226-7.295-7.041-12.632-7.041c0,10.614,0,66.257,0,75.067
	c5.336,0,10.014-2.815,12.632-7.041c1.12,0.263,2.264,0.397,3.409,0.397c3.8,0,7.601-1.45,10.499-4.349
	c3.773-3.773,5.089-9.07,3.952-13.909C430.232,297.739,433.048,293.061,433.048,287.725z"/>
<circle style="fill:#D4498D;" cx="395.509" cy="287.722" r="10.309"/>
<path style="fill:#C84788;" d="M395.514,277.416c5.693,0,10.309,4.616,10.309,10.309s-4.616,10.309-10.309,10.309
	C395.514,289.871,395.514,282.938,395.514,277.416z"/>
<path style="fill:#D02D7F;" d="M461.298,240.631c0-5.336-2.815-10.014-7.041-12.632c1.136-4.838-0.179-10.136-3.952-13.909
	c-3.773-3.772-9.07-5.089-13.909-3.952c-2.618-4.226-7.296-7.041-12.632-7.041s-10.014,2.815-12.632,7.041
	c-4.838-1.136-10.135,0.179-13.909,3.952c-3.773,3.773-5.089,9.07-3.952,13.909c-4.226,2.618-7.041,7.296-7.041,12.632
	s2.815,10.014,7.041,12.632c-1.136,4.838,0.179,10.136,3.952,13.909c2.899,2.899,6.699,4.349,10.499,4.349
	c1.144,0,2.288-0.134,3.408-0.397c2.618,4.226,7.296,7.041,12.632,7.041s10.014-2.815,12.632-7.041
	c1.12,0.263,2.264,0.397,3.409,0.397c3.8,0,7.601-1.45,10.499-4.349c3.773-3.773,5.089-9.07,3.952-13.909
	C458.483,250.645,461.298,245.967,461.298,240.631z"/>
<path style="fill:#C42C78;" d="M461.298,240.631c0-5.336-2.815-10.014-7.041-12.632c1.136-4.838-0.179-10.136-3.952-13.909
	c-3.773-3.772-9.07-5.089-13.909-3.952c-2.618-4.226-7.296-7.041-12.632-7.041c0,5.262,0,68.35,0,75.067
	c5.336,0,10.014-2.815,12.632-7.041c1.12,0.263,2.264,0.397,3.409,0.397c3.8,0,7.601-1.45,10.499-4.349
	c3.773-3.773,5.089-9.07,3.952-13.909C458.483,250.645,461.298,245.967,461.298,240.631z"/>
<circle style="fill:#E759A0;" cx="423.77" cy="240.629" r="10.309"/>
<path style="fill:#D85397;" d="M423.765,230.322c5.693,0,10.309,4.616,10.309,10.309s-4.616,10.309-10.309,10.309
	C423.765,244.984,423.765,236.52,423.765,230.322z"/>
<path style="fill:#FC9FD8;" d="M156.341,287.725c0-5.336-2.815-10.014-7.041-12.632c1.136-4.838-0.179-10.137-3.952-13.909
	c-3.773-3.772-9.07-5.089-13.909-3.952c-2.618-4.226-7.295-7.041-12.632-7.041c-5.337,0-10.014,2.815-12.632,7.041
	c-4.838-1.136-10.135,0.179-13.909,3.952s-5.089,9.07-3.952,13.909c-4.226,2.618-7.041,7.296-7.041,12.632
	s2.815,10.014,7.041,12.632c-1.136,4.838,0.179,10.136,3.952,13.909c2.899,2.9,6.699,4.349,10.499,4.349
	c1.144,0,2.288-0.134,3.408-0.397c2.618,4.226,7.296,7.041,12.632,7.041c5.336,0,10.014-2.815,12.632-7.041
	c1.12,0.263,2.264,0.397,3.409,0.397c3.8,0,7.601-1.45,10.499-4.349c3.773-3.773,5.089-9.07,3.952-13.909
	C153.525,297.739,156.341,293.061,156.341,287.725z"/>
<path style="fill:#EC96CB;" d="M156.341,287.725c0-5.336-2.815-10.014-7.041-12.632c1.136-4.838-0.179-10.137-3.952-13.909
	c-3.773-3.772-9.07-5.089-13.909-3.952c-2.618-4.226-7.295-7.041-12.632-7.041c0,10.614,0,66.257,0,75.067
	c5.336,0,10.014-2.815,12.632-7.041c1.12,0.263,2.264,0.397,3.409,0.397c3.8,0,7.601-1.45,10.499-4.349
	c3.773-3.773,5.089-9.07,3.952-13.909C153.525,297.739,156.341,293.061,156.341,287.725z"/>
<circle style="fill:#D4498D;" cx="118.807" cy="287.722" r="10.309"/>
<path style="fill:#C84788;" d="M118.807,277.416c5.693,0,10.309,4.616,10.309,10.309s-4.616,10.309-10.309,10.309
	C118.807,289.871,118.807,282.938,118.807,277.416z"/>
<path style="fill:#F6C958;" d="M96.359,287.725c0-5.336-2.815-10.014-7.041-12.632c1.136-4.838-0.179-10.137-3.952-13.909
	c-3.773-3.772-9.07-5.089-13.909-3.952c-2.618-4.226-7.295-7.041-12.632-7.041s-10.014,2.815-12.632,7.041
	c-4.838-1.136-10.135,0.179-13.909,3.952c-3.773,3.773-5.089,9.07-3.952,13.909c-4.226,2.618-7.041,7.296-7.041,12.632
	s2.815,10.014,7.041,12.632c-1.136,4.838,0.179,10.136,3.952,13.909c2.899,2.9,6.699,4.349,10.499,4.349
	c1.144,0,2.288-0.134,3.408-0.397c2.618,4.226,7.296,7.041,12.632,7.041s10.014-2.815,12.632-7.041
	c1.12,0.263,2.264,0.397,3.409,0.397c3.8,0,7.601-1.45,10.499-4.349c3.773-3.773,5.089-9.07,3.952-13.909
	C93.544,297.739,96.359,293.061,96.359,287.725z"/>
<path style="fill:#E5BC53;" d="M96.359,287.725c0-5.336-2.815-10.014-7.041-12.632c1.136-4.838-0.179-10.137-3.952-13.909
	c-3.773-3.772-9.07-5.089-13.909-3.952c-2.618-4.226-7.295-7.041-12.632-7.041c0,10.614,0,66.257,0,75.067
	c5.336,0,10.014-2.815,12.632-7.041c1.12,0.263,2.264,0.397,3.409,0.397c3.8,0,7.601-1.45,10.499-4.349
	c3.773-3.773,5.089-9.07,3.952-13.909C93.544,297.739,96.359,293.061,96.359,287.725z"/>
<circle style="fill:#EE964B;" cx="58.826" cy="287.722" r="10.309"/>
<path style="fill:#DF8D46;" d="M58.826,277.416c5.693,0,10.309,4.616,10.309,10.309s-4.616,10.309-10.309,10.309
	C58.826,289.871,58.826,282.938,58.826,277.416z"/>
<path style="fill:#D02D7F;" d="M125.77,240.631c0-5.336-2.815-10.014-7.041-12.632c1.136-4.838-0.179-10.136-3.952-13.909
	c-3.773-3.772-9.07-5.089-13.909-3.952c-2.618-4.226-7.295-7.041-12.632-7.041c-5.336,0-10.014,2.815-12.632,7.041
	c-4.838-1.136-10.135,0.179-13.909,3.952c-3.773,3.773-5.089,9.07-3.952,13.909c-4.226,2.618-7.041,7.296-7.041,12.632
	s2.815,10.014,7.041,12.632c-1.136,4.838,0.179,10.136,3.952,13.909c2.899,2.899,6.699,4.349,10.499,4.349
	c1.144,0,2.288-0.134,3.408-0.397c2.618,4.226,7.296,7.041,12.632,7.041s10.014-2.815,12.632-7.041
	c1.12,0.263,2.264,0.397,3.409,0.397c3.8,0,7.601-1.45,10.499-4.349c3.773-3.773,5.089-9.07,3.952-13.909
	C122.954,250.645,125.77,245.967,125.77,240.631z"/>
<path style="fill:#C42C78;" d="M125.77,240.631c0-5.336-2.815-10.014-7.041-12.632c1.136-4.838-0.179-10.136-3.952-13.909
	c-3.773-3.772-9.07-5.089-13.909-3.952c-2.618-4.226-7.295-7.041-12.632-7.041c0,5.262,0,68.35,0,75.067
	c5.336,0,10.014-2.815,12.632-7.041c1.12,0.263,2.264,0.397,3.409,0.397c3.8,0,7.601-1.45,10.499-4.349
	c3.773-3.773,5.089-9.07,3.952-13.909C122.954,250.645,125.77,245.967,125.77,240.631z"/>
<circle style="fill:#E759A0;" cx="88.232" cy="240.629" r="10.309"/>
<path style="fill:#D85397;" d="M88.236,230.322c5.693,0,10.309,4.616,10.309,10.309s-4.616,10.309-10.309,10.309
	C88.236,244.984,88.236,236.52,88.236,230.322z"/>
</svg>