<?xml version="1.0" encoding="iso-8859-1"?>
<!-- Uploaded to: SVG Repo, www.svgrepo.com, Generator: SVG Repo Mixer Tools -->
<svg version="1.1" id="Layer_1" xmlns="http://www.w3.org/2000/svg" xmlns:xlink="http://www.w3.org/1999/xlink" 
	 viewBox="0 0 512 512" xml:space="preserve">
<path style="fill:#62C9CC;" d="M471.019,504.017H40.981c-17.637,0-31.933-14.297-31.933-31.933V216.615
	c0-17.637,14.297-31.933,31.933-31.933h430.037c17.637,0,31.933,14.297,31.933,31.933v255.468
	C502.952,489.72,488.656,504.017,471.019,504.017z"/>
<rect x="40.981" y="216.615" style="fill:#F3B41B;" width="430.037" height="255.468"/>
<path style="fill:#F7D04A;" d="M62.27,442.811V245.888c0-4.409,3.574-7.983,7.983-7.983h371.493c4.409,0,7.983,3.574,7.983,7.983
	v196.923c0,4.409-3.574,7.983-7.983,7.983H70.254C65.845,450.794,62.27,447.22,62.27,442.811z"/>
<path style="fill:#E5E5E5;" d="M198.52,423.118h-89.414c-17.637,0-31.933-14.297-31.933-31.933v-93.672
	c0-17.637,14.297-31.933,31.933-31.933h89.414c17.637,0,31.933,14.297,31.933,31.933v93.672
	C230.453,408.822,216.157,423.118,198.52,423.118z"/>
<g>
	<rect x="111.235" y="295.385" style="fill:#808080;" width="23.418" height="34.062"/>
	<rect x="172.973" y="295.385" style="fill:#808080;" width="23.418" height="34.062"/>
	<rect x="142.104" y="359.252" style="fill:#808080;" width="23.418" height="34.062"/>
</g>
<path style="fill:#E5E5E5;" d="M313.48,423.118h89.414c17.637,0,31.933-14.297,31.933-31.933v-93.672
	c0-17.637-14.297-31.933-31.933-31.933H313.48c-17.637,0-31.933,14.297-31.933,31.933v93.672
	C281.547,408.822,295.843,423.118,313.48,423.118z"/>
<g>
	<path style="fill:#CCCCCC;" d="M313.48,265.58c-17.637,0-31.933,14.297-31.933,31.933v93.672c0,17.637,14.297,31.933,31.933,31.933
		h76.104L331.727,265.58H313.48z"/>
	<path style="fill:#CCCCCC;" d="M109.643,265.58c-17.637,0-31.933,14.297-31.933,31.933v93.672
		c0,17.637,14.297,31.933,31.933,31.933h76.104L127.889,265.58H109.643z"/>
</g>
<g>
	<rect x="377.347" y="295.385" style="fill:#808080;" width="23.418" height="34.062"/>
	<rect x="315.609" y="295.385" style="fill:#808080;" width="23.418" height="34.062"/>
	<rect x="346.478" y="359.252" style="fill:#808080;" width="23.418" height="34.062"/>
</g>
<path style="fill:#62C9CC;" d="M204.906,146.362H96.333V27.143h108.574c17.637,0,31.933,14.297,31.933,31.933v55.351
	C236.84,132.065,222.543,146.362,204.906,146.362z"/>
<path style="fill:#50A9A9;" d="M204.906,120.815H96.333v25.547h108.574c17.637,0,31.933-14.297,31.933-31.933V88.882
	C236.84,106.518,222.543,120.815,204.906,120.815z"/>
<path d="M471.019,176.699H40.981c-22.011,0-39.917,17.906-39.917,39.917v255.468C1.064,494.094,18.971,512,40.981,512h44.707
	c4.409,0,7.983-3.573,7.983-7.983c0-4.41-3.574-7.983-7.983-7.983H40.981c-13.207,0-23.95-10.745-23.95-23.95V216.615
	c0-13.206,10.743-23.95,23.95-23.95h430.037c13.207,0,23.95,10.745,23.95,23.95v255.468c0,13.206-10.743,23.95-23.95,23.95H136.782
	c-4.409,0-7.983,3.573-7.983,7.983c0,4.41,3.574,7.983,7.983,7.983h334.237c22.011,0,39.917-17.906,39.917-39.917V216.615
	C510.936,194.605,493.029,176.699,471.019,176.699z"/>
<path d="M358.187,208.632H40.981c-4.409,0-7.983,3.573-7.983,7.983v255.468c0,4.41,3.574,7.983,7.983,7.983h430.037
	c4.409,0,7.983-3.573,7.983-7.983V216.615c0-4.41-3.574-7.983-7.983-7.983h-61.738c-4.409,0-7.983,3.573-7.983,7.983
	s3.574,7.983,7.983,7.983h53.755V464.1H48.965V224.599h309.222c4.409,0,7.983-3.573,7.983-7.983S362.596,208.632,358.187,208.632z"
	/>
<path d="M109.106,257.597c-22.011,0-39.917,17.906-39.917,39.917v93.672c0,22.011,17.906,39.917,39.917,39.917h89.414
	c22.011,0,39.917-17.906,39.917-39.917v-93.672c0-22.011-17.906-39.917-39.917-39.917H109.106z M222.47,297.514v93.672
	c0,13.206-10.743,23.95-23.95,23.95h-89.414c-13.207,0-23.95-10.745-23.95-23.95v-93.672c0-13.206,10.743-23.95,23.95-23.95h89.414
	C211.726,273.563,222.47,284.308,222.47,297.514z"/>
<path d="M142.636,329.447v-34.062c0-4.41-3.574-7.983-7.983-7.983h-23.418c-4.409,0-7.983,3.573-7.983,7.983v34.062
	c0,4.41,3.574,7.983,7.983,7.983h23.418C139.062,337.43,142.636,333.857,142.636,329.447z M126.669,321.464h-7.451v-18.096h7.451
	V321.464z"/>
<path d="M172.973,287.401c-4.409,0-7.983,3.573-7.983,7.983v34.062c0,4.41,3.574,7.983,7.983,7.983h23.418
	c4.409,0,7.983-3.573,7.983-7.983v-34.062c0-4.41-3.574-7.983-7.983-7.983H172.973z M188.407,321.464h-7.451v-18.096h7.451V321.464z
	"/>
<path d="M165.522,351.268h-23.418c-4.409,0-7.983,3.573-7.983,7.983v34.062c0,4.41,3.574,7.983,7.983,7.983h23.418
	c4.409,0,7.983-3.573,7.983-7.983v-34.062C173.505,354.842,169.931,351.268,165.522,351.268z M157.538,385.331h-7.451v-18.096h7.451
	V385.331z"/>
<path d="M273.563,297.514v93.672c0,22.011,17.906,39.917,39.917,39.917h89.414c22.011,0,39.917-17.906,39.917-39.917v-93.672
	c0-22.011-17.906-39.917-39.917-39.917H313.48C291.47,257.597,273.563,275.503,273.563,297.514z M426.844,297.514v93.672
	c0,13.206-10.743,23.95-23.95,23.95H313.48c-13.207,0-23.95-10.745-23.95-23.95v-93.672c0-13.206,10.743-23.95,23.95-23.95h89.414
	C416.101,273.563,426.844,284.308,426.844,297.514z"/>
<path d="M377.347,337.43h23.418c4.409,0,7.983-3.573,7.983-7.983v-34.062c0-4.41-3.574-7.983-7.983-7.983h-23.418
	c-4.409,0-7.983,3.573-7.983,7.983v34.062C369.364,333.857,372.938,337.43,377.347,337.43z M385.331,303.368h7.451v18.096h-7.451
	V303.368z"/>
<path d="M307.626,295.385v34.062c0,4.41,3.574,7.983,7.983,7.983h23.418c4.409,0,7.983-3.573,7.983-7.983v-34.062
	c0-4.41-3.574-7.983-7.983-7.983h-23.418C311.2,287.401,307.626,290.975,307.626,295.385z M323.593,303.368h7.451v18.096h-7.451
	V303.368z"/>
<path d="M369.896,351.268h-23.418c-4.409,0-7.983,3.573-7.983,7.983v34.062c0,4.41,3.574,7.983,7.983,7.983h23.418
	c4.409,0,7.983-3.573,7.983-7.983v-34.062C377.879,354.842,374.305,351.268,369.896,351.268z M361.913,385.331h-7.451v-18.096h7.451
	V385.331z"/>
<path d="M40.981,117.089c-4.409,0-7.983,3.573-7.983,7.983c0,4.41,3.574,7.983,7.983,7.983h47.368v13.306
	c0,4.41,3.574,7.983,7.983,7.983h108.574c22.011,0,39.917-17.906,39.917-39.917V98.994h45.239c18.488,0,33.53-15.042,33.53-33.53
	V33.53c0-9.684,7.879-17.563,17.563-17.563c9.684,0,17.563,7.879,17.563,17.563v102.187c0,18.488,15.042,33.53,33.53,33.53
	s33.53-15.042,33.53-33.53v-19.16c0-9.684,7.879-17.563,17.563-17.563h27.676c4.409,0,7.983-3.573,7.983-7.983
	c0-4.41-3.574-7.983-7.983-7.983h-27.676c-18.488,0-33.53,15.042-33.53,33.53v19.16c0,9.684-7.879,17.563-17.563,17.563
	s-17.563-7.879-17.563-17.563V33.53c0-18.488-15.042-33.53-33.53-33.53s-33.53,15.042-33.53,33.53v31.933
	c0,9.684-7.879,17.563-17.563,17.563h-45.239v-23.95c0-22.011-17.906-39.917-39.917-39.917H96.333c-4.409,0-7.983,3.573-7.983,7.983
	v13.306H40.981c-4.409,0-7.983,3.573-7.983,7.983s3.574,7.983,7.983,7.983h47.368v22.353H60.141c-4.409,0-7.983,3.573-7.983,7.983
	s3.574,7.983,7.983,7.983h28.208v22.353H40.981z M104.316,35.127h100.59c13.207,0,23.95,10.745,23.95,23.95v55.351
	c0,13.206-10.743,23.95-23.95,23.95h-100.59V35.127z"/>
<path d="M142.7,94.722l17.651,1.039l-20.513,19.229c-3.217,3.016-3.38,8.067-0.364,11.285c1.572,1.675,3.696,2.523,5.826,2.523
	c1.956,0,3.918-0.715,5.459-2.159l34.062-31.933c2.328-2.182,3.133-5.54,2.047-8.54s-3.853-5.067-7.038-5.254l-18.445-1.085
	l21.491-21.491c3.118-3.119,3.118-8.173,0-11.291c-3.118-3.117-8.173-3.117-11.29,0l-34.062,34.062
	c-2.223,2.224-2.935,5.544-1.817,8.483C136.823,92.528,139.561,94.537,142.7,94.722z"/>
</svg>