<?xml version="1.0" encoding="utf-8"?>
<!-- Uploaded to: SVG Repo, www.svgrepo.com, Generator: SVG Repo Mixer Tools -->
<svg width="800px" height="800px" viewBox="0 0 1024 1024" class="icon"  version="1.1" xmlns="http://www.w3.org/2000/svg"><path d="M873.927111 373.748622l26.737778 98.850134h-51.791645l-20.297955-98.850134z" fill="#F2F2F2" /><path d="M431.149511 433.914311h187.676445v56.285867H431.149511z" fill="#B3B3B3" /><path d="M431.149511 433.914311h80.167822v56.285867h-80.167822z" fill="#999999" /><path d="M933.626311 735.266133c6.337422 6.371556 10.24 15.166578 10.24 24.871823a35.054933 35.054933 0 0 1-34.952533 35.157333h-667.761778c-9.648356 0-18.409244-3.936711-24.735289-10.285511s-10.24-15.1552-10.24-24.871822a35.066311 35.066311 0 0 1 34.975289-35.168712H908.913778c9.636978 0 18.375111 3.925333 24.712533 10.296889z" fill="#F2F2F2" /><path d="M341.947733 760.137956a35.066311 35.066311 0 0 1 34.986667-35.168712H241.152a35.066311 35.066311 0 0 0-34.975289 35.168712c0 9.716622 3.902578 18.511644 10.24 24.871822s15.086933 10.285511 24.735289 10.285511h135.7824a34.872889 34.872889 0 0 1-24.746667-10.285511 35.134578 35.134578 0 0 1-10.24-24.871822z" fill="#CCCCCC" /><path d="M848.873244 472.598756l-20.297955-98.850134-12.561067-61.246578c-13.016178-63.374222-68.494222-108.817067-132.835555-108.817066H263.611733c-32.927289 0-60.302222 25.440711-62.907733 58.436266l-3.390578 42.9056-33.143466 419.9424H900.664889l-51.791645-252.370488z m-575.681422 17.601422V305.026844h310.112711c3.265422 0 6.485333 0.170667 9.671111 0.512 41.016889 4.323556 74.706489 35.919644 81.225956 77.698845l16.622933 106.962489H273.191822z" fill="#49DB95" /><path d="M253.508267 262.109867c2.605511-32.995556 29.980444-58.436267 62.907733-58.436267h-52.804267c-32.927289 0-60.302222 25.452089-62.907733 58.436267l-3.390578 42.916977-33.143466 419.9424h52.804266l33.132089-419.9424 3.401956-42.916977z" fill="#3FC481" /><path d="M943.627378 725.1968a48.662756 48.662756 0 0 0-31.425422-14.336l-21.697423-105.801956a14.165333 14.165333 0 0 0-16.713955-11.0592 14.222222 14.222222 0 0 0-10.990934 16.804978l20.502756 99.931022H339.706311c-7.816533 0-14.142578 6.371556-14.142578 14.222223s6.337422 14.222222 14.142578 14.222222h569.207467a20.900978 20.900978 0 0 1 20.821333 20.946489c0 11.548444-9.352533 20.935111-20.821333 20.935111h-667.761778a20.798578 20.798578 0 0 1-20.832711-20.935111c0-11.559822 9.341156-20.957867 20.832711-20.957867h50.562844c7.816533 0 14.142578-6.360178 14.142578-14.222222 0-7.839289-6.337422-14.222222-14.142578-14.222222h-112.2304l35.316623-447.499378c2.002489-25.417956 23.4496-45.340444 48.810666-45.340445h419.578311c57.344 0 107.383467 41.005511 118.9888 97.473423l50.449067 245.896533c1.581511 7.691378 9.056711 12.640711 16.713956 11.0592s12.572444-9.102222 11.002311-16.804978l-14.097067-68.7104h34.417778c4.414578 0 8.567467-2.059378 11.229867-5.586489 2.685156-3.527111 3.572622-8.0896 2.423466-12.367644l-26.749155-98.850133a14.165333 14.165333 0 0 0-13.653334-10.490312h-33.803377l-10.24-49.902933c-14.290489-69.609244-75.9808-120.149333-146.682312-120.149333H263.611733c-40.015644 0-73.841778 31.425422-77.016177 71.543466l-2.3552 29.809778h-85.902223c-7.805156 0-14.142578 6.371556-14.142577 14.222222s6.337422 14.222222 14.142577 14.222223h83.672178l-31.937422 404.593777c-0.3072 3.959467 1.035378 7.850667 3.720533 10.774756 2.673778 2.912711 6.439822 4.562489 10.387911 4.562489h32.494934a49.322667 49.322667 0 0 0-4.653511 20.957867c0 13.2096 5.108622 25.622756 14.392888 34.929777a48.7424 48.7424 0 0 0 34.724978 14.449778h667.761778c27.067733 0 49.095111-22.141156 49.095111-49.379555a49.186133 49.186133 0 0 0-14.370133-34.941156z m-80.520534-337.225956l19.0464 70.405689h-21.754311l-14.449777-70.405689h17.157688z" fill="" /><path d="M351.0272 319.249067c7.816533 0 14.142578-6.371556 14.142578-14.222223s-6.337422-14.222222-14.142578-14.222222h-77.824c-7.816533 0-14.142578 6.371556-14.142578 14.222222v185.173334c0 7.850667 6.326044 14.222222 14.142578 14.222222h417.632711c4.130133 0 8.066844-1.820444 10.752-4.983467a14.336 14.336 0 0 0 3.219911-11.446044l-16.634311-106.973867c-8.146489-52.280889-52.246756-90.225778-104.8576-90.225778H403.820089c-7.816533 0-14.142578 6.371556-14.142578 14.222223s6.337422 14.222222 14.142578 14.222222h179.484444c38.593422 0 70.929067 27.830044 76.913778 66.173155l14.074311 90.544356h-41.335466v-42.052267c0-7.850667-6.337422-14.222222-14.142578-14.222222H431.149511c-7.816533 0-14.142578 6.371556-14.142578 14.222222v42.063645H287.3344V319.249067h63.6928z m94.264889 128.887466h159.391289v27.841423H445.292089v-27.841423z" fill="" /></svg>