<?xml version="1.0" encoding="iso-8859-1"?>
<!-- Uploaded to: SVG Repo, www.svgrepo.com, Generator: SVG Repo Mixer Tools -->
<svg version="1.1" id="Layer_1" xmlns="http://www.w3.org/2000/svg" xmlns:xlink="http://www.w3.org/1999/xlink" 
	 viewBox="0 0 512 512" xml:space="preserve">
<rect x="10.199" y="150.357" style="fill:#E8E8E8;" width="491.602" height="339.939"/>
<path style="fill:#F07057;" d="M426.492,421.785H85.508v-81.584c0-15.597,12.644-28.241,28.241-28.241H398.25
	c15.597,0,28.241,12.644,28.241,28.241v81.584H426.492z"/>
<rect x="192.673" y="380.991" style="fill:#E8E8E8;" width="126.654" height="40.793"/>
<g>
	<rect x="105.378" y="421.788" style="fill:#84B3D2;" width="49.16" height="68.508"/>
	<rect x="357.462" y="421.788" style="fill:#84B3D2;" width="49.16" height="68.508"/>
</g>
<polygon style="fill:#E8E8E8;" points="109.566,311.959 402.434,311.959 352.228,202.133 159.772,202.133 "/>
<polygon style="fill:#F07057;" points="420.216,21.705 91.784,21.705 10.199,150.358 501.801,150.358 "/>
<path d="M510.42,144.923c-0.004-0.009,0-0.017-0.006-0.027L428.829,16.243c-1.871-2.95-5.12-4.738-8.613-4.738H91.785
	c-3.493,0-6.743,1.788-8.613,4.738L1.586,144.895c-0.01,0.015-0.009,0.03-0.016,0.045C0.58,146.512,0,148.365,0,150.358v339.937
	c0,5.632,4.566,10.199,10.199,10.199h491.602c5.633,0,10.199-4.567,10.199-10.199V150.358
	C512,148.358,511.416,146.497,510.42,144.923z M97.393,31.904h317.214l68.65,108.254H28.744L97.393,31.904z M238.219,220.174
	c-5.633,0-10.199,4.567-10.199,10.199s4.566,10.199,10.199,10.199h31.379c5.633,0,10.199-4.567,10.199-10.199
	s-4.566-10.199-10.199-10.199h-5.49v-7.841h81.57l40.881,89.428H125.442l40.881-89.428h77.385v7.841L238.219,220.174
	L238.219,220.174z M113.75,322.158H398.25c9.948,0,18.041,8.094,18.041,18.041v71.385h-86.768v-30.594
	c0-5.632-4.566-10.199-10.199-10.199H192.674c-5.633,0-10.199,4.567-10.199,10.199v30.594H95.707V340.2
	C95.707,330.252,103.801,322.158,113.75,322.158z M396.42,480.096h-28.762v-48.112h28.762V480.096z M347.259,431.984v48.112H164.741
	v-48.112H347.259z M309.127,411.586H202.873v-20.394h106.253V411.586z M115.58,431.984h28.762v48.112H115.58V431.984z
	 M491.602,480.096h-74.784v-48.112h9.674c5.633,0,10.199-4.567,10.199-10.199v-81.584c0-17.174-11.322-31.751-26.893-36.665
	l-48.293-105.641c-1.659-3.631-5.284-5.959-9.276-5.959H159.772c-3.992,0-7.617,2.328-9.276,5.959l-48.293,105.641
	c-15.571,4.915-26.893,19.492-26.893,36.665v81.584c0,5.632,4.566,10.199,10.199,10.199h9.674v48.112H20.398V160.557h471.203
	V480.096z"/>
<path d="M297.838,352.491h9.413c5.633,0,10.199-4.567,10.199-10.199s-4.566-10.199-10.199-10.199h-9.413
	c-5.633,0-10.199,4.567-10.199,10.199S292.206,352.491,297.838,352.491z"/>
<path d="M342.815,352.491h49.16c5.633,0,10.199-4.567,10.199-10.199s-4.566-10.199-10.199-10.199h-49.16
	c-5.633,0-10.199,4.567-10.199,10.199S337.182,352.491,342.815,352.491z"/>
</svg>