<?xml version="1.0" encoding="iso-8859-1"?>
<!-- Uploaded to: SVG Repo, www.svgrepo.com, Generator: SVG Repo Mixer Tools -->
<svg height="800px" width="800px" version="1.1" id="Layer_1" xmlns="http://www.w3.org/2000/svg" xmlns:xlink="http://www.w3.org/1999/xlink" 
	 viewBox="0 0 512 512" xml:space="preserve">
<g transform="translate(1 1)">
	<path style="fill:#FFFFFF;" d="M135.533,152.6c0-25.6,14.507-46.933,33.28-50.347c-2.56-0.853-5.12-0.853-7.68-0.853
		c-28.16,0-51.2,23.04-51.2,51.2s23.04,51.2,51.2,51.2c2.56,0,5.12,0,7.68-0.853C150.04,199.533,135.533,178.2,135.533,152.6"/>
	<path style="fill:#FCC309;" d="M212.333,152.6c0-28.16-18.773-51.2-42.667-51.2S127,124.44,127,152.6s18.773,51.2,42.667,51.2
		S212.333,180.76,212.333,152.6"/>
	<path style="fill:#FFDD09;" d="M348.867,101.4H161.133c28.16,0,51.2,23.04,51.2,51.2s-23.04,51.2-51.2,51.2h187.733
		c28.16,0,51.2-23.04,51.2-51.2S377.027,101.4,348.867,101.4"/>
	<path style="fill:#FD9808;" d="M348.867,101.4h-25.6c28.16,0,51.2,23.04,51.2,51.2s-23.04,51.2-51.2,51.2h25.6
		c28.16,0,51.2-23.04,51.2-51.2S377.027,101.4,348.867,101.4"/>
	<path style="fill:#FFFFFF;" d="M75.8,255c0-25.6,14.507-46.933,33.28-50.347c-2.56-0.853-5.12-0.853-7.68-0.853
		c-28.16,0-51.2,23.04-51.2,51.2s23.04,51.2,51.2,51.2c2.56,0,5.12,0,7.68-0.853C90.307,301.933,75.8,280.6,75.8,255"/>
	<path style="fill:#FCC309;" d="M152.6,255c0-28.16-18.773-51.2-42.667-51.2S67.267,226.84,67.267,255s18.773,51.2,42.667,51.2
		S152.6,283.16,152.6,255"/>
	<path style="fill:#FFFFFF;" d="M33.133,357.4c0-25.6,14.507-46.933,33.28-50.347c-2.56-0.853-5.12-0.853-7.68-0.853
		c-28.16,0-51.2,23.04-51.2,51.2s23.04,51.2,51.2,51.2c2.56,0,5.12,0,7.68-0.853C47.64,404.333,33.133,383,33.133,357.4"/>
	<path style="fill:#FCC309;" d="M109.933,357.4c0-28.16-18.773-51.2-42.667-51.2S24.6,329.24,24.6,357.4s18.773,51.2,42.667,51.2
		S109.933,385.56,109.933,357.4"/>
	<path style="fill:#FFFFFF;" d="M135.533,357.4c0-25.6,14.507-46.933,33.28-50.347c-2.56-0.853-5.12-0.853-7.68-0.853
		c-28.16,0-51.2,23.04-51.2,51.2s23.04,51.2,51.2,51.2c2.56,0,5.12,0,7.68-0.853C150.04,404.333,135.533,383,135.533,357.4"/>
	<path style="fill:#FCC309;" d="M212.333,357.4c0-28.16-18.773-51.2-42.667-51.2S127,329.24,127,357.4s18.773,51.2,42.667,51.2
		S212.333,385.56,212.333,357.4"/>
	<path d="M161.133,212.333c-33.28,0-59.733-26.453-59.733-59.733s26.453-59.733,59.733-59.733s59.733,26.453,59.733,59.733
		S194.413,212.333,161.133,212.333z M161.133,109.933c-23.893,0-42.667,18.773-42.667,42.667s18.773,42.667,42.667,42.667
		S203.8,176.493,203.8,152.6S185.027,109.933,161.133,109.933z"/>
	<path style="fill:#FCC309;" d="M255,255c0-28.16-18.773-51.2-42.667-51.2s-42.667,23.04-42.667,51.2s18.773,51.2,42.667,51.2
		S255,283.16,255,255"/>
	<path style="fill:#FFDD09;" d="M391.533,203.8H203.8c28.16,0,51.2,23.04,51.2,51.2s-23.04,51.2-51.2,51.2h187.733
		c28.16,0,51.2-23.04,51.2-51.2S419.693,203.8,391.533,203.8"/>
	<path style="fill:#FD9808;" d="M391.533,203.8h-25.6c28.16,0,51.2,23.04,51.2,51.2s-23.04,51.2-51.2,51.2h25.6
		c28.16,0,51.2-23.04,51.2-51.2S419.693,203.8,391.533,203.8"/>
	<path style="fill:#FCC309;" d="M314.733,357.4c0-28.16-18.773-51.2-42.667-51.2S229.4,329.24,229.4,357.4s18.773,51.2,42.667,51.2
		S314.733,385.56,314.733,357.4"/>
	<path style="fill:#FFDD09;" d="M451.267,306.2H263.533c28.16,0,51.2,23.04,51.2,51.2s-23.04,51.2-51.2,51.2h187.733
		c28.16,0,51.2-23.04,51.2-51.2S479.427,306.2,451.267,306.2"/>
	<path style="fill:#FD9808;" d="M451.267,306.2h-25.6c28.16,0,51.2,23.04,51.2,51.2s-23.04,51.2-51.2,51.2h25.6
		c28.16,0,51.2-23.04,51.2-51.2S479.427,306.2,451.267,306.2"/>
	<path d="M144.067,161.133c-5.12,0-8.533-3.413-8.533-8.533c0-14.507,11.093-25.6,25.6-25.6c5.12,0,8.533,3.413,8.533,8.533
		s-3.413,8.533-8.533,8.533c-5.12,0-8.533,3.413-8.533,8.533S149.187,161.133,144.067,161.133z"/>
	<path d="M84.333,263.533c-5.12,0-8.533-3.413-8.533-8.533c0-14.507,11.093-25.6,25.6-25.6c5.12,0,8.533,3.413,8.533,8.533
		c0,5.12-3.413,8.533-8.533,8.533c-5.12,0-8.533,3.413-8.533,8.533S89.453,263.533,84.333,263.533z"/>
	<path d="M41.667,365.933c-5.12,0-8.533-3.413-8.533-8.533c0-14.507,11.093-25.6,25.6-25.6c5.12,0,8.533,3.413,8.533,8.533
		c0,5.12-3.413,8.533-8.533,8.533S50.2,352.28,50.2,357.4S46.787,365.933,41.667,365.933z"/>
	<path d="M144.067,365.933c-5.12,0-8.533-3.413-8.533-8.533c0-14.507,11.093-25.6,25.6-25.6c5.12,0,8.533,3.413,8.533,8.533
		c0,5.12-3.413,8.533-8.533,8.533c-5.12,0-8.533,3.413-8.533,8.533S149.187,365.933,144.067,365.933z"/>
	<path d="M348.867,212.333H161.133c-5.12,0-8.533-3.413-8.533-8.533c0-5.12,3.413-8.533,8.533-8.533
		c23.893,0,42.667-18.773,42.667-42.667s-18.773-42.667-42.667-42.667c-5.12,0-8.533-3.413-8.533-8.533
		c0-5.12,3.413-8.533,8.533-8.533h187.733c33.28,0,59.733,26.453,59.733,59.733S382.147,212.333,348.867,212.333z M202.947,195.267
		h145.92c23.893,0,42.667-18.773,42.667-42.667s-18.773-42.667-42.667-42.667h-145.92c11.093,11.093,17.92,25.6,17.92,42.667
		S214.04,184.173,202.947,195.267z"/>
	<path d="M203.8,314.733c-33.28,0-59.733-26.453-59.733-59.733s26.453-59.733,59.733-59.733S263.533,221.72,263.533,255
		S237.08,314.733,203.8,314.733z M203.8,212.333c-23.893,0-42.667,18.773-42.667,42.667s18.773,42.667,42.667,42.667
		s42.667-18.773,42.667-42.667S227.693,212.333,203.8,212.333z"/>
	<path d="M101.4,314.733c-33.28,0-59.733-26.453-59.733-59.733s26.453-59.733,59.733-59.733S161.133,221.72,161.133,255
		S134.68,314.733,101.4,314.733z M101.4,212.333c-23.893,0-42.667,18.773-42.667,42.667s18.773,42.667,42.667,42.667
		s42.667-18.773,42.667-42.667S125.293,212.333,101.4,212.333z"/>
	<path d="M391.533,314.733H203.8c-5.12,0-8.533-3.413-8.533-8.533s3.413-8.533,8.533-8.533c23.893,0,42.667-18.773,42.667-42.667
		s-18.773-42.667-42.667-42.667c-5.12,0-8.533-3.413-8.533-8.533c0-5.12,3.413-8.533,8.533-8.533h187.733
		c33.28,0,59.733,26.453,59.733,59.733S424.813,314.733,391.533,314.733z M245.613,297.667h145.92
		c23.893,0,42.667-18.773,42.667-42.667s-18.773-42.667-42.667-42.667h-145.92c11.093,11.093,17.92,25.6,17.92,42.667
		S256.707,286.573,245.613,297.667z"/>
	<path d="M263.533,417.133c-33.28,0-59.733-26.453-59.733-59.733s26.453-59.733,59.733-59.733s59.733,26.453,59.733,59.733
		S296.813,417.133,263.533,417.133z M263.533,314.733c-23.893,0-42.667,18.773-42.667,42.667c0,23.893,18.773,42.667,42.667,42.667
		c23.893,0,42.667-18.773,42.667-42.667C306.2,333.507,287.427,314.733,263.533,314.733z"/>
	<path d="M161.133,417.133c-33.28,0-59.733-26.453-59.733-59.733s26.453-59.733,59.733-59.733s59.733,26.453,59.733,59.733
		S194.413,417.133,161.133,417.133z M161.133,314.733c-23.893,0-42.667,18.773-42.667,42.667c0,23.893,18.773,42.667,42.667,42.667
		S203.8,381.293,203.8,357.4C203.8,333.507,185.027,314.733,161.133,314.733z"/>
	<path d="M58.733,417.133C25.453,417.133-1,390.68-1,357.4s26.453-59.733,59.733-59.733s59.733,26.453,59.733,59.733
		S92.013,417.133,58.733,417.133z M58.733,314.733c-23.893,0-42.667,18.773-42.667,42.667c0,23.893,18.773,42.667,42.667,42.667
		S101.4,381.293,101.4,357.4C101.4,333.507,82.627,314.733,58.733,314.733z"/>
	<path d="M451.267,417.133H263.533c-5.12,0-8.533-3.413-8.533-8.533c0-5.12,3.413-8.533,8.533-8.533
		c23.893,0,42.667-18.773,42.667-42.667c0-23.893-18.773-42.667-42.667-42.667c-5.12,0-8.533-3.413-8.533-8.533
		s3.413-8.533,8.533-8.533h187.733c33.28,0,59.733,26.453,59.733,59.733S484.547,417.133,451.267,417.133z M305.347,400.067h145.92
		c23.893,0,42.667-18.773,42.667-42.667c0-23.893-18.773-42.667-42.667-42.667h-145.92c11.093,11.093,17.92,25.6,17.92,42.667
		C323.267,374.467,316.44,388.973,305.347,400.067z"/>
	<path d="M161.133,417.133h-102.4c-5.12,0-8.533-3.413-8.533-8.533c0-5.12,3.413-8.533,8.533-8.533
		c23.893,0,42.667-18.773,42.667-42.667c0-5.12,3.413-8.533,8.533-8.533s8.533,3.413,8.533,8.533
		c0,23.893,18.773,42.667,42.667,42.667c5.12,0,8.533,3.413,8.533,8.533C169.667,413.72,166.253,417.133,161.133,417.133z
		 M100.547,400.067h18.773c-3.413-3.413-6.827-7.68-9.387-11.947C107.373,392.387,103.96,396.653,100.547,400.067z"/>
	<path d="M263.533,417.133h-102.4c-5.12,0-8.533-3.413-8.533-8.533c0-5.12,3.413-8.533,8.533-8.533
		c23.893,0,42.667-18.773,42.667-42.667c0-5.12,3.413-8.533,8.533-8.533c5.12,0,8.533,3.413,8.533,8.533
		c0,23.893,18.773,42.667,42.667,42.667c5.12,0,8.533,3.413,8.533,8.533C272.067,413.72,268.653,417.133,263.533,417.133z
		 M202.947,400.067h18.773c-3.413-3.413-6.827-7.68-9.387-11.947C209.773,392.387,206.36,396.653,202.947,400.067z"/>
	<path d="M263.533,144.067h-53.76c-5.12,0-8.533-3.413-8.533-8.533s3.413-8.533,8.533-8.533h53.76c5.12,0,8.533,3.413,8.533,8.533
		S268.653,144.067,263.533,144.067z"/>
	<path d="M246.467,178.2h-36.693c-5.12,0-8.533-3.413-8.533-8.533c0-5.12,3.413-8.533,8.533-8.533h36.693
		c5.12,0,8.533,3.413,8.533,8.533C255,174.787,251.587,178.2,246.467,178.2z"/>
	<path d="M340.333,178.2h-51.2c-5.12,0-8.533-3.413-8.533-8.533c0-5.12,3.413-8.533,8.533-8.533h51.2
		c5.12,0,8.533,3.413,8.533,8.533C348.867,174.787,345.453,178.2,340.333,178.2z"/>
	<path d="M397.507,144.067h-57.173c-5.12,0-8.533-3.413-8.533-8.533s3.413-8.533,8.533-8.533h57.173c5.12,0,8.533,3.413,8.533,8.533
		S401.773,144.067,397.507,144.067z"/>
	<path d="M306.2,144.067h-8.533c-5.12,0-8.533-3.413-8.533-8.533s3.413-8.533,8.533-8.533h8.533c5.12,0,8.533,3.413,8.533,8.533
		S311.32,144.067,306.2,144.067z"/>
	<path d="M397.507,178.2h-23.04c-5.12,0-8.533-3.413-8.533-8.533c0-5.12,3.413-8.533,8.533-8.533h23.04
		c5.12,0,8.533,3.413,8.533,8.533C406.04,174.787,401.773,178.2,397.507,178.2z"/>
	<path d="M186.733,263.533c-5.12,0-8.533-3.413-8.533-8.533c0-14.507,11.093-25.6,25.6-25.6c5.12,0,8.533,3.413,8.533,8.533
		c0,5.12-3.413,8.533-8.533,8.533c-5.12,0-8.533,3.413-8.533,8.533S191.853,263.533,186.733,263.533z"/>
	<path d="M306.2,246.467h-53.76c-5.12,0-8.533-3.413-8.533-8.533c0-5.12,3.413-8.533,8.533-8.533h53.76
		c5.12,0,8.533,3.413,8.533,8.533C314.733,243.053,311.32,246.467,306.2,246.467z"/>
	<path d="M289.133,280.6H252.44c-5.12,0-8.533-3.413-8.533-8.533s3.413-8.533,8.533-8.533h36.693c5.12,0,8.533,3.413,8.533,8.533
		S294.253,280.6,289.133,280.6z"/>
	<path d="M383,280.6h-51.2c-5.12,0-8.533-3.413-8.533-8.533s3.413-8.533,8.533-8.533H383c5.12,0,8.533,3.413,8.533,8.533
		S388.12,280.6,383,280.6z"/>
	<path d="M440.173,246.467H383c-5.12,0-8.533-3.413-8.533-8.533c0-5.12,3.413-8.533,8.533-8.533h57.173
		c5.12,0,8.533,3.413,8.533,8.533C448.707,243.053,444.44,246.467,440.173,246.467z"/>
	<path d="M348.867,246.467h-8.533c-5.12,0-8.533-3.413-8.533-8.533c0-5.12,3.413-8.533,8.533-8.533h8.533
		c5.12,0,8.533,3.413,8.533,8.533C357.4,243.053,353.987,246.467,348.867,246.467z"/>
	<path d="M440.173,280.6h-23.04c-5.12,0-8.533-3.413-8.533-8.533s3.413-8.533,8.533-8.533h23.04c5.12,0,8.533,3.413,8.533,8.533
		S444.44,280.6,440.173,280.6z"/>
	<path d="M246.467,365.933c-5.12,0-8.533-3.413-8.533-8.533c0-14.507,11.093-25.6,25.6-25.6c5.12,0,8.533,3.413,8.533,8.533
		c0,5.12-3.413,8.533-8.533,8.533c-5.12,0-8.533,3.413-8.533,8.533S251.587,365.933,246.467,365.933z"/>
	<path d="M365.933,348.867h-53.76c-5.12,0-8.533-3.413-8.533-8.533c0-5.12,3.413-8.533,8.533-8.533h53.76
		c5.12,0,8.533,3.413,8.533,8.533C374.467,345.453,371.053,348.867,365.933,348.867z"/>
	<path d="M348.867,383h-36.693c-5.12,0-8.533-3.413-8.533-8.533c0-5.12,3.413-8.533,8.533-8.533h36.693
		c5.12,0,8.533,3.413,8.533,8.533S353.987,383,348.867,383z"/>
	<path d="M442.733,383h-51.2c-5.12,0-8.533-3.413-8.533-8.533c0-5.12,3.413-8.533,8.533-8.533h51.2c5.12,0,8.533,3.413,8.533,8.533
		S447.853,383,442.733,383z"/>
	<path d="M499.907,348.867h-57.173c-5.12,0-8.533-3.413-8.533-8.533c0-5.12,3.413-8.533,8.533-8.533h57.173
		c5.12,0,8.533,3.413,8.533,8.533C508.44,345.453,504.173,348.867,499.907,348.867z"/>
	<path d="M408.6,348.867h-8.533c-5.12,0-8.533-3.413-8.533-8.533c0-5.12,3.413-8.533,8.533-8.533h8.533
		c5.12,0,8.533,3.413,8.533,8.533C417.133,345.453,413.72,348.867,408.6,348.867z"/>
	<path d="M499.907,383h-23.04c-5.12,0-8.533-3.413-8.533-8.533c0-5.12,3.413-8.533,8.533-8.533h23.04
		c5.12,0,8.533,3.413,8.533,8.533S504.173,383,499.907,383z"/>
</g>
</svg>