<?xml version="1.0" encoding="iso-8859-1"?>
<!-- Uploaded to: SVG Repo, www.svgrepo.com, Generator: SVG Repo Mixer Tools -->
<svg fill="#000000" version="1.1" id="Layer_1" xmlns="http://www.w3.org/2000/svg" xmlns:xlink="http://www.w3.org/1999/xlink" 
	 viewBox="0 0 455 455" xml:space="preserve">
<g>
	<rect x="96.783" y="138.806" width="261.434" height="36.847"/>
	<polygon points="122.644,333.96 122.644,455 172.548,455 172.548,356.876 202.548,356.876 202.548,455 252.452,455 
		252.452,356.876 282.452,356.876 282.452,455 332.356,455 332.356,333.96 227.5,301.247 	"/>
	<polygon points="0,205.653 0,455 92.644,455 92.644,311.894 227.5,269.821 362.356,311.894 362.356,455 455,455 455,205.653 	"/>
	<path d="M242.5,42.083V0h-30v42.083c-36.957,5.668-67.099,31.955-78.303,66.723h186.607
		C309.599,74.038,279.458,47.751,242.5,42.083z"/>
</g>
</svg>