<?xml version="1.0" encoding="iso-8859-1"?>
<!-- Uploaded to: SVG Repo, www.svgrepo.com, Generator: SVG Repo Mixer Tools -->
<svg height="800px" width="800px" version="1.1" id="Layer_1" xmlns="http://www.w3.org/2000/svg" xmlns:xlink="http://www.w3.org/1999/xlink" 
	 viewBox="0 0 511.996 511.996" xml:space="preserve">
<g>
	<path style="fill:#F4D99D;" d="M297.765,58.501c1.563-4.546,2.392-9.428,2.375-14.539c-0.088-21.548-16.516-40.589-37.862-43.529
		C235.107-3.31,211.864,17.7,211.864,44.13c0,5.12,0.847,10.01,2.428,14.557c4.378,12.553,6.4,25.988,3.081,38.868
		c-6.612,25.653-22.387,43.679-40.819,43.679H335.45c-18.432,0-34.207-18.017-40.819-43.67
		C291.294,84.622,293.422,71.142,297.765,58.501"/>
	<path style="fill:#26B99A;" d="M388.412,211.858H123.584V167.72c0-14.627,11.855-26.483,26.483-26.483h211.862
		c14.627,0,26.483,11.855,26.483,26.483V211.858z"/>
	<path style="fill:#B0D3F0;" d="M141.24,211.858v264.828c0,19.5,15.81,35.31,35.31,35.31h158.897c19.5,0,35.31-15.81,35.31-35.31
		V211.858H141.24z"/>
	<g>
		<path style="fill:#8697CB;" d="M141.24,300.134v-35.31h-17.655c-29.255,0-52.966,35.566-52.966,79.448
			s23.711,79.448,52.966,79.448h17.655v-35.31h-17.655c-8.828,0-17.655-14.716-17.655-44.138c0-29.422,9.198-44.138,17.655-44.138
			H141.24z"/>
		<path style="fill:#8697CB;" d="M370.757,300.134v-35.31h17.655c29.255,0,52.966,35.566,52.966,79.448
			s-23.711,79.448-52.966,79.448h-17.655v-35.31h17.655c8.828,0,17.655-14.716,17.655-44.138c0-29.422-9.198-44.138-17.655-44.138
			H370.757z"/>
		<path style="fill:#8697CB;" d="M273.653,282.479h-35.31c-4.873,0-8.828-3.955-8.828-8.828c0-4.873,3.955-8.828,8.828-8.828h35.31
			c4.873,0,8.828,3.955,8.828,8.828C282.481,278.524,278.526,282.479,273.653,282.479"/>
		<path style="fill:#8697CB;" d="M291.308,317.789h-70.621c-4.873,0-8.828-3.955-8.828-8.828c0-4.873,3.955-8.828,8.828-8.828
			h70.621c4.873,0,8.828,3.955,8.828,8.828C300.136,313.835,296.181,317.789,291.308,317.789"/>
		<path style="fill:#8697CB;" d="M273.653,353.1h-35.31c-4.873,0-8.828-3.955-8.828-8.828s3.955-8.828,8.828-8.828h35.31
			c4.873,0,8.828,3.955,8.828,8.828S278.526,353.1,273.653,353.1"/>
		<path style="fill:#8697CB;" d="M273.653,423.72h-35.31c-4.873,0-8.828-3.955-8.828-8.828c0-4.873,3.955-8.828,8.828-8.828h35.31
			c4.873,0,8.828,3.955,8.828,8.828C282.481,419.766,278.526,423.72,273.653,423.72"/>
		<path style="fill:#8697CB;" d="M291.308,459.031h-70.621c-4.873,0-8.828-3.955-8.828-8.828s3.955-8.828,8.828-8.828h70.621
			c4.873,0,8.828,3.955,8.828,8.828S296.181,459.031,291.308,459.031"/>
		<path style="fill:#8697CB;" d="M291.308,388.41h-70.621c-4.873,0-8.828-3.955-8.828-8.828c0-4.873,3.955-8.828,8.828-8.828h70.621
			c4.873,0,8.828,3.955,8.828,8.828C300.136,384.455,296.181,388.41,291.308,388.41"/>
	</g>
	<path style="fill:#FFFFFF;" d="M344.274,185.376H167.722c-4.873,0-8.828-3.955-8.828-8.828c0-4.873,3.955-8.828,8.828-8.828
		h176.552c4.873,0,8.828,3.955,8.828,8.828C353.102,181.421,349.147,185.376,344.274,185.376"/>
	<path style="fill:#D6B772;" d="M255.998,35.307c4.873,0,8.828-3.955,8.828-8.828V1.029c-0.865-0.168-1.677-0.477-2.551-0.6
		c-5.226-0.724-10.302-0.503-15.104,0.468v25.582C247.171,31.352,251.125,35.307,255.998,35.307"/>
</g>
</svg>