<?xml version="1.0" encoding="iso-8859-1"?>
<!-- Uploaded to: SVG Repo, www.svgrepo.com, Generator: SVG Repo Mixer Tools -->
<svg height="800px" width="800px" version="1.1" id="Layer_1" xmlns="http://www.w3.org/2000/svg" xmlns:xlink="http://www.w3.org/1999/xlink" 
	 viewBox="0 0 512 512" xml:space="preserve">
<g>
	<path style="fill:#88E2E2;" d="M174.917,263.004c-17.258-6.015-35.084-6.674-51.669-2.857c-3.03,0.697-4.285,4.298-2.345,6.728
		c10.62,13.299,24.992,23.864,42.251,29.879c19.408,6.765,39.534,6.754,57.808,1.223
		C210.084,282.287,194.325,269.769,174.917,263.004z"/>
	<path style="fill:#88E2E2;" d="M249.56,221.198c5.682-17.41,6.259-35.259,2.561-51.93c-0.989-4.458-6.441-6.237-9.869-3.221
		c-12.821,11.281-22.884,26.032-28.566,43.443c-6.733,20.629-6.298,41.874-0.076,61.047
		C229.945,258.725,242.828,241.827,249.56,221.198z"/>
	<path style="fill:#88E2E2;" d="M338.33,288.231c17.552-6.496,32.152-17.456,42.999-31.115c2.524-3.178,0.782-7.885-3.203-8.653
		c-17.126-3.305-35.343-2.118-52.895,4.378c-20.351,7.533-36.734,21.066-47.899,37.848
		C296.733,296.158,317.979,295.764,338.33,288.231z"/>
</g>
<g>
	<path style="fill:#67D1D3;" d="M163.153,281.693c-13.89-4.841-25.898-12.642-35.598-22.431c-1.45,0.263-2.893,0.56-4.326,0.889
		c-3.021,0.696-4.26,4.302-2.325,6.726c10.62,13.299,24.992,23.863,42.25,29.878c19.408,6.764,39.534,6.754,57.808,1.223
		c-3.092-4.461-6.593-8.655-10.446-12.543C195.173,288.213,178.926,287.191,163.153,281.693z"/>
	<path style="fill:#67D1D3;" d="M249.56,206.136c-4.138,12.678-10.598,23.946-18.754,33.49c-7.108,8.317-20.839,4.081-21.701-6.824
		l-0.018-0.235c-1.009,13.03,0.61,25.909,4.524,37.969c16.334-11.812,29.217-28.709,35.951-49.339
		c4.141-12.69,5.561-25.61,4.6-38.139C253.565,190.744,252.059,198.482,249.56,206.136z"/>
	<path style="fill:#67D1D3;" d="M338.33,273.171c-16.859,6.241-34.329,7.568-50.858,4.735c-3.737,3.993-7.133,8.266-10.14,12.784
		c19.401,5.47,40.646,5.075,60.998-2.457c17.548-6.495,32.145-17.451,42.991-31.105c2.529-3.184,0.772-7.892-3.222-8.656
		c-0.668-0.128-1.338-0.25-2.01-0.364C365.943,258.947,353.202,267.665,338.33,273.171z"/>
</g>
<g>
	<path style="fill:#EDA156;" d="M236.188,504.958c-0.01,0-0.02,0-0.03,0c-4.997-0.017-9.035-4.081-9.019-9.077
		c0.094-28.751-0.713-58.06-2.397-87.11c-3.396-58.552-5.269-85.689-14.115-115.359c-10.149-34.045-32.041-72.908-56.054-103.01
		c-3.116-3.905-2.475-9.599,1.431-12.715c3.907-3.114,9.6-2.473,12.715,1.432c25.467,31.923,48.435,72.844,59.25,109.125
		c9.82,32.939,11.603,63.678,14.838,119.48c1.706,29.417,2.523,59.098,2.428,88.217
		C245.219,500.927,241.171,504.958,236.188,504.958z"/>
	<path style="fill:#EDA156;" d="M260.268,504.958c-4.984,0-9.031-4.032-9.048-9.019c-0.095-29.119,0.723-58.8,2.428-88.217
		c3.236-55.802,5.017-86.54,14.838-119.48c7.841-26.303,39.388-111.069,71.652-151.513c3.116-3.906,8.809-4.546,12.715-1.432
		c3.906,3.116,4.547,8.81,1.431,12.715C324.062,185.898,293.1,269.026,285.83,293.41c-8.846,29.672-10.72,56.808-14.115,115.359
		c-1.684,29.049-2.491,58.358-2.397,87.11c0.017,4.997-4.021,9.061-9.019,9.077C260.289,504.958,260.278,504.958,260.268,504.958z"
		/>
</g>
<g>
	<path style="fill:#F09EA0;" d="M394.244,93.355c22.22-16.356,42.566-31.583,45.875-34.891c7.744-7.744,7.744-20.297,0-28.041
		s-20.297-7.744-28.041,0c-3.309,3.309-18.535,23.655-34.891,45.875L394.244,93.355z"/>
	<path style="fill:#F09EA0;" d="M339.096,114.389c-22.22,16.356-42.566,31.583-45.875,34.891c-7.744,7.744-7.744,20.297,0,28.041
		c7.744,7.744,20.297,7.744,28.041,0c3.309-3.309,18.535-23.655,34.891-45.875L339.096,114.389z"/>
	<path style="fill:#F09EA0;" d="M377.187,131.446c16.356,22.22,31.583,42.566,34.891,45.875c7.744,7.744,20.297,7.744,28.041,0
		c7.744-7.744,7.744-20.297,0-28.041c-3.309-3.309-23.655-18.535-45.875-34.891L377.187,131.446z"/>
	<path style="fill:#F09EA0;" d="M356.153,76.298c-16.356-22.22-31.583-42.566-34.891-45.875c-7.744-7.744-20.297-7.744-28.041,0
		s-7.744,20.297,0,28.041c3.309,3.309,23.655,18.535,45.875,34.891L356.153,76.298z"/>
</g>
<g>
	<path style="fill:#F9DE8F;" d="M378.731,76.938c4.146-27.277,7.767-52.43,7.767-57.11C386.498,8.878,377.62,0,366.67,0
		s-19.828,8.878-19.828,19.828c0,4.68,3.62,29.832,7.767,57.11H378.731z"/>
	<path style="fill:#F9DE8F;" d="M354.609,130.807c-4.146,27.277-7.767,52.43-7.767,57.11c0,10.95,8.878,19.828,19.828,19.828
		s19.828-8.878,19.828-19.828c0-4.68-3.62-29.832-7.767-57.11C378.731,130.807,354.609,130.807,354.609,130.807z"/>
	<path style="fill:#F9DE8F;" d="M393.605,115.934c27.277,4.146,52.43,7.767,57.11,7.767c10.95,0,19.828-8.878,19.828-19.828
		c0-10.95-8.878-19.828-19.828-19.828c-4.68,0-29.832,3.62-57.11,7.767V115.934z"/>
	<path style="fill:#F9DE8F;" d="M339.735,91.811c-27.277-4.146-52.43-7.767-57.11-7.767c-10.95,0-19.828,8.878-19.828,19.828
		s8.878,19.828,19.828,19.828c4.68,0,29.832-3.62,57.11-7.767V91.811z"/>
</g>
<g>
	<path style="fill:#EF8990;" d="M440.119,38.636c-2.811,2.811-17.919,14.224-36.027,27.625c-5.651,4.181-13.513,3.601-18.483-1.369
		l0,0c-2.735,3.691-5.56,7.519-8.422,11.406l17.057,17.057c22.22-16.356,42.566-31.583,45.875-34.891
		c6.49-6.49,7.518-16.35,3.129-23.934C442.4,35.995,441.372,37.383,440.119,38.636z"/>
	<path style="fill:#EF8990;" d="M321.262,157.493c-7.744,7.744-20.297,7.744-28.041,0c-1.253-1.253-2.281-2.642-3.129-4.106
		c-4.389,7.584-3.361,17.444,3.129,23.934c7.744,7.744,20.297,7.744,28.041,0c3.309-3.308,18.535-23.655,34.891-45.875l-8.422-8.422
		C334.836,140.433,323.992,154.763,321.262,157.493z"/>
	<path style="fill:#EF8990;" d="M440.119,157.493c-7.744,7.744-20.297,7.744-28.041,0c-2.73-2.73-13.574-17.059-26.469-34.468
		l-8.422,8.422c16.356,22.219,31.583,42.566,34.891,45.875c7.744,7.744,20.297,7.744,28.041,0c6.49-6.49,7.518-16.35,3.129-23.934
		C442.4,154.851,441.372,156.24,440.119,157.493z"/>
	<path style="fill:#EF8990;" d="M347.733,64.891c-4.97,4.97-12.833,5.551-18.483,1.369c-18.108-13.399-33.216-24.813-36.027-27.625
		c-1.253-1.253-2.281-2.642-3.129-4.106c-4.389,7.584-3.361,17.444,3.129,23.934c3.309,3.309,23.655,18.535,45.875,34.891
		l17.057-17.057C353.291,72.41,350.466,68.583,347.733,64.891L347.733,64.891z"/>
</g>
<g>
	<path style="fill:#F7CF6D;" d="M366.67,57.11L366.67,57.11c-6.941,0-12.837-5.085-13.864-11.95
		c-1.888-12.631-3.547-24.137-4.632-32.474c-0.857,2.217-1.332,4.624-1.332,7.144c0,4.68,3.62,29.832,7.767,57.11h24.123
		c4.146-27.277,7.767-52.43,7.767-57.11c0-2.519-0.475-4.927-1.332-7.144c-1.086,8.338-2.744,19.844-4.632,32.474
		C379.507,52.025,373.612,57.11,366.67,57.11z"/>
	<path style="fill:#F7CF6D;" d="M366.67,187.917c-8.431,0-15.629-5.265-18.496-12.684c-0.835,6.411-1.332,10.953-1.332,12.684
		c0,10.95,8.878,19.828,19.828,19.828s19.828-8.878,19.828-19.828c0-1.732-0.497-6.273-1.332-12.684
		C382.299,182.652,375.101,187.917,366.67,187.917z"/>
	<path style="fill:#F7CF6D;" d="M450.714,103.872c-4.678,0-29.832-3.62-57.11-7.767v-4.295l0,0v24.123
		c27.277,4.146,52.43,7.767,57.11,7.767c10.95,0,19.828-8.878,19.828-19.828c0-3.613-0.971-6.997-2.659-9.914
		C464.454,99.883,458.053,103.872,450.714,103.872z"/>
	<path style="fill:#F7CF6D;" d="M265.458,93.958c-1.688,2.917-2.659,6.301-2.659,9.914c0,10.95,8.878,19.828,19.828,19.828
		c4.68,0,29.832-3.62,57.11-7.767V96.106c-27.277,4.146-52.43,7.767-57.11,7.767C275.289,103.872,268.886,99.883,265.458,93.958z"/>
</g>
<circle style="fill:#88E2E2;" cx="366.664" cy="103.869" r="35.75"/>
<path style="fill:#B9BDE6;" d="M162.079,186.75L162.079,186.75c-26.025,16.808-60.748,9.339-77.558-16.687l-42.263-65.436
	c-2.648-4.099,1.75-9.097,6.152-6.991l29.761,14.234l1.665-45.033c0.125-3.387,3.605-5.6,6.726-4.277l41.012,17.401l-0.239-33.953
	c-0.034-4.842,6.277-6.727,8.904-2.66l42.527,65.843C195.575,135.217,188.104,169.94,162.079,186.75z"/>
<path style="fill:#ABB0E0;" d="M162.079,146.538L162.079,146.538c-26.025,16.808-60.748,9.337-77.558-16.687l-13.965-21.624
	L48.411,97.635c-4.403-2.106-8.8,2.892-6.152,6.991l42.264,65.436c16.808,26.025,51.533,33.496,77.558,16.687l0,0
	c22.711-14.668,31.288-42.979,21.934-67.247C179.904,130.241,172.478,139.821,162.079,146.538z"/>
<g>
	<path style="fill:#F7CF6D;" d="M244.422,362.603c-10.033,18.152-16.275,34.015-20.187,45.53
		c-10.38,30.545-13.653,57.803-17.181,87.195c-0.581,4.844-1.066,9.313-1.471,13.314c-0.367,3.643-5.209,4.628-6.985,1.425
		l-16.028-28.914l-16.775,28.579c-1.9,3.237-6.851,1.976-6.958-1.776c-0.462-16.1-0.516-44.154,3.546-64.173
		c6.014-29.638,27.06-60.134,31.785-65.718C198.894,372.479,244.422,362.603,244.422,362.603z"/>
	<path style="fill:#F7CF6D;" d="M250.436,362.603c10.033,18.152,16.275,34.015,20.187,45.53
		c10.38,30.545,13.653,57.803,17.181,87.195c0.581,4.844,1.066,9.313,1.471,13.314c0.367,3.643,5.209,4.628,6.985,1.425
		l16.028-28.914l16.775,28.579c1.9,3.237,6.851,1.976,6.958-1.776c0.462-16.1,0.516-44.154-3.546-64.173
		c-6.014-29.638-27.06-60.134-31.785-65.718C295.965,372.479,250.436,362.603,250.436,362.603z"/>
</g>
<path style="fill:#F9DE8F;" d="M351.59,297.958c-13.794-11.248-34.529-5.704-45.422-2.792c-22.347,5.974-37.786,19.18-46.712,28.671
	c-3.006,0-6.014,0-9.02,0s-6.014,0-9.02,0c-8.926-9.492-24.365-22.697-46.712-28.671c-10.895-2.912-31.63-8.457-45.422,2.792
	c-4.957,4.043-11.427,12.218-9.664,19.544c1.88,7.81,11.288,7.06,16.966,17.396c5.02,9.137,3.027,19.479,2.362,22.335
	c-2.954,12.693-11.432,13.954-11.275,23.947c0.147,9.404,7.775,15.93,8.376,16.43c4.976,4.134,10.475,4.934,12.135,5.155
	c18.172,2.41,29.283-18.842,58.416-33.074c9.874-4.824,18.552-7.245,23.839-8.483c5.286,1.238,13.965,3.659,23.839,8.483
	c29.133,14.232,40.245,35.483,58.416,33.074c1.66-0.221,7.159-1.021,12.135-5.155c0.601-0.499,8.229-7.026,8.376-16.43
	c0.157-9.992-8.32-11.253-11.275-23.947c-0.665-2.855-2.658-13.198,2.362-22.335c5.678-10.336,15.087-9.586,16.966-17.396
	C363.018,310.178,356.547,302.001,351.59,297.958z"/>
<circle style="fill:#88E2E2;" cx="250.43" cy="341.343" r="27.143"/>
</svg>