<?xml version="1.0" encoding="iso-8859-1"?>
<!-- Uploaded to: SVG Repo, www.svgrepo.com, Generator: SVG Repo Mixer Tools -->
<svg version="1.1" id="Layer_1" xmlns="http://www.w3.org/2000/svg" xmlns:xlink="http://www.w3.org/1999/xlink" 
	 viewBox="0 0 512 512" xml:space="preserve">
<g transform="translate(1)">
	<path style="fill:#FFE100;" d="M451.267,503.467H58.733l85.333-68.267H357.4L451.267,503.467z"/>
	<g>
		<path style="fill:#63D3FD;" d="M186.733,384c0,9.387-7.68,17.067-17.067,17.067S152.6,393.387,152.6,384
			s7.68-17.067,17.067-17.067S186.733,374.613,186.733,384"/>
		<path style="fill:#63D3FD;" d="M357.4,384c0,9.387-7.68,17.067-17.067,17.067s-17.067-7.68-17.067-17.067
			s7.68-17.067,17.067-17.067S357.4,374.613,357.4,384"/>
	</g>
	<path style="fill:#FFE100;" d="M365.933,196.267H144.067v-76.8c0-14.507,11.093-25.6,25.6-25.6h170.667
		c14.507,0,25.6,11.093,25.6,25.6V196.267z"/>
	<path style="fill:#FFFFFF;" d="M169.667,93.867h-25.6c-14.507,0-25.6,11.093-25.6,25.6v76.8h25.6v-76.8
		C144.067,104.96,155.16,93.867,169.667,93.867"/>
	<path style="fill:#FFA800;" d="M365.933,93.867h-25.6c14.507,0,25.6,11.093,25.6,25.6v76.8h25.6v-76.8
		C391.533,104.96,380.44,93.867,365.933,93.867"/>
	<path style="fill:#FFE100;" d="M144.067,332.8h221.867v76.8c0,14.507-11.093,25.6-25.6,25.6H169.667
		c-14.507,0-25.6-11.093-25.6-25.6V332.8z"/>
	<path style="fill:#FFA800;" d="M340.333,435.2h25.6c14.507,0,25.6-11.093,25.6-25.6v-76.8h-25.6v76.8
		C365.933,424.107,354.84,435.2,340.333,435.2"/>
	<path style="fill:#FFFFFF;" d="M144.067,435.2h25.6c-14.507,0-25.6-11.093-25.6-25.6v-76.8h-25.6v76.8
		C118.467,424.107,129.56,435.2,144.067,435.2"/>
	<path style="fill:#63D3FD;" d="M144.067,332.8h221.867V196.267H144.067V332.8z"/>
	<path style="fill:#FFFFFF;" d="M118.467,332.8h25.6V196.267h-25.6V332.8z"/>
	<path style="fill:#3DB9F9;" d="M365.933,332.8h25.6V196.267h-25.6V332.8z"/>
	<path style="fill:#63D3FD;" d="M195.267,162.133h119.467V128H195.267V162.133z"/>
	<path style="fill:#FFE100;" d="M289.133,93.867h-68.267l9.387-51.2h48.64L289.133,93.867z"/>
	<path style="fill:#FFFFFF;" d="M212.333,42.667l-17.067,51.2h25.6l9.387-51.2H212.333z"/>
	<path style="fill:#FFA800;" d="M297.667,42.667h-17.92l9.387,51.2h25.6L297.667,42.667z"/>
	<path style="fill:#FFE100;" d="M67.267,460.8c-2.56,0-5.12-0.853-6.827-3.413C22.04,405.333-1,333.653-1,264.533
		c0-140.8,115.2-256,256-256s256,115.2,256,256c0,64.853-26.453,137.387-69.973,192.853c-2.56,3.413-8.533,4.267-11.947,1.707
		c-3.413-2.56-4.267-8.533-1.707-11.947c40.96-52.053,66.56-122.027,66.56-182.613C493.933,133.12,386.413,25.6,255,25.6
		S16.067,133.12,16.067,264.533c0,65.707,21.333,133.973,58.027,182.613c2.56,3.413,1.707,9.387-1.707,11.947
		C70.68,459.947,68.973,460.8,67.267,460.8z"/>
	<path d="M451.267,512H58.733c-3.413,0-6.827-2.56-7.68-5.973c-0.853-3.413,0-6.827,2.56-9.387l85.333-68.267
		c1.707-0.853,3.413-1.707,5.12-1.707H357.4c1.707,0,3.413,0.853,5.12,1.707l93.867,68.267c3.413,2.56,4.267,5.973,3.413,9.387
		C458.093,509.44,454.68,512,451.267,512z M83.48,494.933h342.187l-69.973-51.2H147.48L83.48,494.933z"/>
	<rect x="169.667" y="435.2" width="17.067" height="68.267"/>
	<rect x="314.733" y="435.2" width="17.067" height="68.267"/>
	<polygon points="101.4,460.8 400.067,460.8 406.893,477.867 101.4,477.867 	"/>
	<path d="M365.933,443.733H144.067c-18.773,0-34.133-15.36-34.133-34.133v-76.8c0-5.12,3.413-8.533,8.533-8.533h273.067
		c5.12,0,8.533,3.413,8.533,8.533v76.8C400.067,428.373,384.707,443.733,365.933,443.733z M127,341.333V409.6
		c0,9.387,7.68,17.067,17.067,17.067h221.867c9.387,0,17.067-7.68,17.067-17.067v-68.267H127z"/>
	<path d="M391.533,204.8H118.467c-5.12,0-8.533-3.413-8.533-8.533v-76.8c0-18.773,15.36-34.133,34.133-34.133h221.867
		c18.773,0,34.133,15.36,34.133,34.133v76.8C400.067,201.387,396.653,204.8,391.533,204.8z M127,187.733h256v-68.267
		c0-9.387-7.68-17.067-17.067-17.067H144.067c-9.387,0-17.067,7.68-17.067,17.067V187.733z"/>
	<path d="M391.533,341.333H118.467c-5.12,0-8.533-3.413-8.533-8.533V196.267c0-5.12,3.413-8.533,8.533-8.533h273.067
		c5.12,0,8.533,3.413,8.533,8.533V332.8C400.067,337.92,396.653,341.333,391.533,341.333z M127,324.267h256V204.8H127V324.267z"/>
	<path d="M314.733,102.4H195.267c-2.56,0-5.12-1.707-6.827-3.413c-1.707-2.56-1.707-5.12-0.853-7.68l17.067-51.2
		c0.853-3.413,4.267-5.973,7.68-5.973h85.333c3.413,0,6.827,2.56,7.68,5.973l17.067,51.2c0.853,2.56,0.853,5.12-0.853,7.68
		C319.853,100.693,317.293,102.4,314.733,102.4z M207.213,85.333h95.573L291.693,51.2h-73.387L207.213,85.333z"/>
	<path d="M169.667,409.6c-14.507,0-25.6-11.093-25.6-25.6c0-14.507,11.093-25.6,25.6-25.6c14.507,0,25.6,11.093,25.6,25.6
		C195.267,398.507,184.173,409.6,169.667,409.6z M169.667,375.467c-5.12,0-8.533,3.413-8.533,8.533c0,5.12,3.413,8.533,8.533,8.533
		c5.12,0,8.533-3.413,8.533-8.533C178.2,378.88,174.787,375.467,169.667,375.467z"/>
	<path d="M340.333,409.6c-14.507,0-25.6-11.093-25.6-25.6c0-14.507,11.093-25.6,25.6-25.6c14.507,0,25.6,11.093,25.6,25.6
		C365.933,398.507,354.84,409.6,340.333,409.6z M340.333,375.467c-5.12,0-8.533,3.413-8.533,8.533c0,5.12,3.413,8.533,8.533,8.533
		c5.12,0,8.533-3.413,8.533-8.533C348.867,378.88,345.453,375.467,340.333,375.467z"/>
	<path d="M314.733,170.667H195.267c-5.12,0-8.533-3.413-8.533-8.533V128c0-5.12,3.413-8.533,8.533-8.533h119.467
		c5.12,0,8.533,3.413,8.533,8.533v34.133C323.267,167.253,319.853,170.667,314.733,170.667z M203.8,153.6h102.4v-17.067H203.8V153.6
		z"/>
	<path d="M67.267,452.267c-2.56,0-5.12-0.853-6.827-3.413C22.04,396.8-1,325.12-1,256C-1,115.2,114.2,0,255,0s256,115.2,256,256
		c0,64.853-26.453,137.387-69.973,192.853c-2.56,3.413-8.533,4.267-11.947,1.707c-3.413-2.56-4.267-8.533-1.707-11.947
		c40.96-52.053,66.56-122.027,66.56-182.613c0-131.413-107.52-238.933-238.933-238.933S16.067,124.587,16.067,256
		c0,65.707,21.333,133.973,58.027,182.613c2.56,3.413,1.707,9.387-1.707,11.947C70.68,451.413,68.973,452.267,67.267,452.267z"/>
</g>
</svg>