<?xml version="1.0" encoding="iso-8859-1"?>
<!-- Uploaded to: SVG Repo, www.svgrepo.com, Generator: SVG Repo Mixer Tools -->
<svg height="800px" width="800px" version="1.1" id="Layer_1" xmlns="http://www.w3.org/2000/svg" xmlns:xlink="http://www.w3.org/1999/xlink" 
	 viewBox="0 0 502.406 502.406" xml:space="preserve">
<path style="fill:#BF0A4F;" d="M91.262,376.186c0,1.827-1.489,3.324-3.324,3.324H3.308c-1.827,0-3.308-1.489-3.308-3.324v-35.675
	c0-1.827,1.481-3.324,3.308-3.324h84.63c1.827,0,3.324,1.489,3.324,3.324C91.262,340.512,91.262,376.186,91.262,376.186z"/>
<path style="fill:#9B0542;" d="M0,340.512c0-1.827,1.481-3.324,3.308-3.324h84.63c1.827,0,3.324,1.489,3.324,3.324v35.675
	c0,1.827-1.489,3.324-3.324,3.324"/>
<path style="fill:#BF0A4F;" d="M194.048,376.186c0,1.827-1.489,3.324-3.324,3.324h-84.63c-1.827,0-3.324-1.489-3.324-3.324v-35.675
	c0-1.827,1.489-3.324,3.324-3.324h84.63c1.827,0,3.324,1.489,3.324,3.324L194.048,376.186L194.048,376.186z"/>
<path style="fill:#9B0542;" d="M102.77,340.512c0-1.827,1.489-3.324,3.324-3.324h84.63c1.827,0,3.324,1.489,3.324,3.324v35.675
	c0,1.827-1.489,3.324-3.324,3.324"/>
<path style="fill:#BF0A4F;" d="M296.834,376.186c0,1.827-1.489,3.324-3.324,3.324h-84.63c-1.827,0-3.324-1.489-3.324-3.324v-35.675
	c0-1.827,1.489-3.324,3.324-3.324h84.63c1.827,0,3.324,1.489,3.324,3.324L296.834,376.186L296.834,376.186z"/>
<path style="fill:#9B0542;" d="M205.556,340.512c0-1.827,1.489-3.324,3.324-3.324h84.63c1.827,0,3.324,1.489,3.324,3.324v35.675
	c0,1.827-1.489,3.324-3.324,3.324"/>
<path style="fill:#BF0A4F;" d="M399.62,376.186c0,1.827-1.489,3.324-3.308,3.324h-84.63c-1.843,0-3.34-1.489-3.34-3.324v-35.675
	c0-1.827,1.489-3.324,3.34-3.324h84.63c1.812,0,3.308,1.489,3.308,3.324V376.186z"/>
<path style="fill:#9B0542;" d="M308.342,340.512c0-1.827,1.489-3.324,3.34-3.324h84.63c1.812,0,3.308,1.489,3.308,3.324v35.675
	c0,1.827-1.489,3.324-3.308,3.324"/>
<path style="fill:#BF0A4F;" d="M502.406,376.186c0,1.827-1.489,3.324-3.308,3.324h-84.63c-1.843,0-3.34-1.489-3.34-3.324v-35.675
	c0-1.827,1.489-3.324,3.34-3.324h84.63c1.812,0,3.308,1.489,3.308,3.324V376.186z"/>
<path style="fill:#9B0542;" d="M411.128,340.512c0-1.827,1.489-3.324,3.34-3.324h84.63c1.812,0,3.308,1.489,3.308,3.324v35.675
	c0,1.827-1.489,3.324-3.308,3.324"/>
<path style="fill:#BF0A4F;" d="M142.667,323.017c0,1.827-1.489,3.324-3.324,3.324h-84.63c-1.843,0-3.324-1.489-3.324-3.324v-35.675
	c0-1.827,1.481-3.324,3.324-3.324h84.63c1.827,0,3.324,1.489,3.324,3.324V323.017z"/>
<path style="fill:#9B0542;" d="M51.389,287.342c0-1.827,1.481-3.324,3.324-3.324h84.63c1.827,0,3.324,1.489,3.324,3.324v35.675
	c0,1.827-1.489,3.324-3.324,3.324"/>
<path style="fill:#BF0A4F;" d="M245.453,323.017c0,1.827-1.489,3.324-3.324,3.324h-84.63c-1.843,0-3.324-1.489-3.324-3.324v-35.675
	c0-1.827,1.481-3.324,3.324-3.324h84.63c1.827,0,3.324,1.489,3.324,3.324V323.017z"/>
<path style="fill:#9B0542;" d="M154.175,287.342c0-1.827,1.481-3.324,3.324-3.324h84.63c1.827,0,3.324,1.489,3.324,3.324v35.675
	c0,1.827-1.489,3.324-3.324,3.324"/>
<path style="fill:#BF0A4F;" d="M348.231,323.017c0,1.827-1.489,3.324-3.324,3.324h-84.63c-1.843,0-3.324-1.489-3.324-3.324v-35.675
	c0-1.827,1.481-3.324,3.324-3.324h84.63c1.827,0,3.324,1.489,3.324,3.324V323.017z"/>
<path style="fill:#9B0542;" d="M256.953,287.342c0-1.827,1.481-3.324,3.324-3.324h84.63c1.827,0,3.324,1.489,3.324,3.324v35.675
	c0,1.827-1.489,3.324-3.324,3.324"/>
<path style="fill:#BF0A4F;" d="M451.017,323.017c0,1.827-1.489,3.324-3.324,3.324h-84.63c-1.843,0-3.324-1.489-3.324-3.324v-35.675
	c0-1.827,1.481-3.324,3.324-3.324h84.63c1.827,0,3.324,1.489,3.324,3.324V323.017z"/>
<path style="fill:#9B0542;" d="M359.739,287.342c0-1.827,1.481-3.324,3.324-3.324h84.63c1.827,0,3.324,1.489,3.324,3.324v35.675
	c0,1.827-1.489,3.324-3.324,3.324"/>
<path style="fill:#BF0A4F;" d="M194.048,269.312c0,1.827-1.489,3.324-3.324,3.324h-84.63c-1.827,0-3.324-1.489-3.324-3.324v-35.675
	c0-1.827,1.489-3.324,3.324-3.324h84.63c1.827,0,3.324,1.489,3.324,3.324L194.048,269.312L194.048,269.312z"/>
<path style="fill:#9B0542;" d="M102.77,233.637c0-1.827,1.489-3.324,3.324-3.324h84.63c1.827,0,3.324,1.489,3.324,3.324v35.675
	c0,1.827-1.489,3.324-3.324,3.324"/>
<path style="fill:#BF0A4F;" d="M296.834,269.312c0,1.827-1.489,3.324-3.324,3.324h-84.63c-1.827,0-3.324-1.489-3.324-3.324v-35.675
	c0-1.827,1.489-3.324,3.324-3.324h84.63c1.827,0,3.324,1.489,3.324,3.324L296.834,269.312L296.834,269.312z"/>
<path style="fill:#9B0542;" d="M205.556,233.637c0-1.827,1.489-3.324,3.324-3.324h84.63c1.827,0,3.324,1.489,3.324,3.324v35.675
	c0,1.827-1.489,3.324-3.324,3.324"/>
<path style="fill:#BF0A4F;" d="M399.62,269.312c0,1.827-1.489,3.324-3.324,3.324h-84.63c-1.827,0-3.324-1.489-3.324-3.324v-35.675
	c0-1.827,1.489-3.324,3.324-3.324h84.63c1.827,0,3.324,1.489,3.324,3.324V269.312z"/>
<path style="fill:#9B0542;" d="M308.342,233.637c0-1.827,1.489-3.324,3.324-3.324h84.63c1.827,0,3.324,1.489,3.324,3.324v35.675
	c0,1.827-1.489,3.324-3.324,3.324"/>
<path style="fill:#BF0A4F;" d="M245.453,215.599c0,1.827-1.489,3.324-3.324,3.324h-84.63c-1.843,0-3.324-1.489-3.324-3.324v-35.675
	c0-1.827,1.481-3.324,3.324-3.324h84.63c1.827,0,3.324,1.489,3.324,3.324V215.599z"/>
<path style="fill:#9B0542;" d="M154.175,179.925c0-1.827,1.481-3.324,3.324-3.324h84.63c1.827,0,3.324,1.489,3.324,3.324v35.675
	c0,1.827-1.489,3.324-3.324,3.324"/>
<path style="fill:#BF0A4F;" d="M348.231,215.599c0,1.827-1.489,3.324-3.324,3.324h-84.63c-1.843,0-3.324-1.489-3.324-3.324v-35.675
	c0-1.827,1.481-3.324,3.324-3.324h84.63c1.827,0,3.324,1.489,3.324,3.324V215.599z"/>
<path style="fill:#9B0542;" d="M256.953,179.925c0-1.827,1.481-3.324,3.324-3.324h84.63c1.827,0,3.324,1.489,3.324,3.324v35.675
	c0,1.827-1.489,3.324-3.324,3.324"/>
<path style="fill:#BF0A4F;" d="M296.834,161.894c0,1.827-1.489,3.324-3.324,3.324h-84.63c-1.827,0-3.324-1.489-3.324-3.324V126.22
	c0-1.827,1.489-3.324,3.324-3.324h84.63c1.827,0,3.324,1.489,3.324,3.324L296.834,161.894L296.834,161.894z"/>
<path style="fill:#9B0542;" d="M205.556,126.22c0-1.827,1.489-3.324,3.324-3.324h84.63c1.827,0,3.324,1.489,3.324,3.324v35.675
	c0,1.827-1.489,3.324-3.324,3.324"/>
</svg>