<?xml version="1.0" encoding="iso-8859-1"?>
<!-- Uploaded to: SVG Repo, www.svgrepo.com, Generator: SVG Repo Mixer Tools -->
<svg version="1.1" id="Layer_1" xmlns="http://www.w3.org/2000/svg" xmlns:xlink="http://www.w3.org/1999/xlink" 
	 viewBox="0 0 512 512" xml:space="preserve">
<rect x="97.876" y="11.011" style="fill:#F7941E;" width="258.753" height="445.935"/>
<rect x="141.919" y="55.054" style="fill:#EFEFEF;" width="170.667" height="132.129"/>
<rect x="48.328" y="456.946" style="fill:#A7A9AC;" width="357.849" height="44.043"/>
<g>
	<path style="fill:#FFDE17;" d="M205.232,304.006c0,13.682-11.092,24.774-24.774,24.774c-13.682,0-24.774-11.092-24.774-24.774
		c0-13.682,24.774-40.63,24.774-40.63S205.232,290.324,205.232,304.006z"/>
	<path style="fill:#FFDE17;" d="M298.823,304.006c0,13.682-11.092,24.774-24.774,24.774s-24.774-11.092-24.774-24.774
		c0-13.682,24.774-40.63,24.774-40.63S298.823,290.324,298.823,304.006z"/>
</g>
<rect x="356.628" y="77.075" style="fill:#A7A9AC;" width="49.548" height="88.086"/>
<g>
	<path style="fill:#231F20;" d="M312.586,44.043H141.92c-6.081,0-11.011,4.931-11.011,11.011v132.129
		c0,6.08,4.93,11.011,11.011,11.011h170.667c6.081,0,11.011-4.931,11.011-11.011V55.054
		C323.597,48.974,318.668,44.043,312.586,44.043z M301.576,176.172H152.931V66.065h148.645V176.172z"/>
	<path style="fill:#231F20;" d="M298.823,361.813H198.131c-6.081,0-11.011,4.931-11.011,11.011s4.93,11.011,11.011,11.011h100.692
		c6.081,0,11.011-4.931,11.011-11.011S304.904,361.813,298.823,361.813z"/>
	<path style="fill:#231F20;" d="M156.658,361.813h-0.974c-6.081,0-11.011,4.931-11.011,11.011s4.93,11.011,11.011,11.011h0.974
		c6.081,0,11.011-4.931,11.011-11.011S162.739,361.813,156.658,361.813z"/>
	<path style="fill:#231F20;" d="M216.242,304.007c0-16.678-21.186-41.019-27.679-48.082c-2.085-2.269-5.025-3.559-8.106-3.559
		s-6.021,1.29-8.106,3.559c-6.493,7.062-27.679,31.404-27.679,48.082c0,19.732,16.054,35.785,35.785,35.785
		S216.242,323.739,216.242,304.007z M180.457,317.77c-7.59,0-13.763-6.174-13.763-13.763c0-3.693,5.937-13.605,13.768-23.606
		c7.828,9.989,13.759,19.899,13.759,23.606C194.221,311.595,188.046,317.77,180.457,317.77z"/>
	<path style="fill:#231F20;" d="M274.049,252.365c-3.081,0-6.021,1.29-8.106,3.559c-6.493,7.062-27.679,31.404-27.679,48.082
		c0,19.732,16.054,35.785,35.785,35.785s35.785-16.053,35.785-35.785c0-16.678-21.186-41.019-27.679-48.082
		C280.07,253.656,277.13,252.365,274.049,252.365z M274.049,317.77c-7.59,0-13.763-6.174-13.763-13.763
		c0-3.693,5.937-13.605,13.768-23.606c7.828,9.989,13.759,19.899,13.759,23.606C287.812,311.595,281.637,317.77,274.049,317.77z"/>
	<path style="fill:#231F20;" d="M463.04,156.846l-45.102-45.102c-0.241-0.241-0.493-0.464-0.75-0.677V77.075
		c0-6.08-4.93-11.011-11.011-11.011h-38.538V11.011c0-6.08-4.93-11.011-11.011-11.011H97.876c-6.081,0-11.011,4.931-11.011,11.011
		v434.925H48.327c-6.081,0-11.011,4.931-11.011,11.011v44.043c0,6.08,4.93,11.011,11.011,11.011h357.849
		c6.081,0,11.011-4.931,11.011-11.011v-44.043c0-6.08-4.93-11.011-11.011-11.011h-38.538V274.387h9.79
		c9.781,0,17.737,7.957,17.737,17.737v84.873c0,21.924,17.836,39.759,39.759,39.759s39.759-17.835,39.759-39.759V184.96
		C474.685,174.34,470.549,164.356,463.04,156.846z M395.167,88.086v66.065H367.64V88.086H395.167z M395.167,489.979H59.339v-22.022
		h335.828V489.979z M108.888,445.935V22.022h236.731v423.914H108.888z M434.926,394.736c-9.781,0-17.737-7.957-17.737-17.737
		v-84.873c0-21.924-17.836-39.759-39.759-39.759h-9.79v-76.194h38.538c6.081,0,11.011-4.931,11.011-11.011v-23.022l30.28,30.28
		c1.775,1.775,3.114,3.866,3.994,6.14h-12.745c-6.081,0-11.011,4.931-11.011,11.011c0,6.08,4.93,11.011,11.011,11.011h13.947
		v176.419C452.663,386.778,444.707,394.736,434.926,394.736z"/>
</g>
</svg>